<svg width="86" height="63" viewBox="0 0 86 63" fill="none" xmlns="http://www.w3.org/2000/svg"><path d="M8.55176 55.6602H3.19043L1.98633 59H.246094L5.13281 46.2031h1.47657L11.5049 59H9.77344l-1.22168-3.3398zM3.7002 54.2715h4.35058l-2.17969-5.9854-2.17089 5.9854zM13.7725 59v-8.2529h-1.503v-1.2569h1.503v-.9756c0-1.0195.2724-1.8076.8173-2.3642.545-.5566 1.3155-.835 2.3116-.835.375 0 .747.0498 1.1162.1494l-.0879 1.3184c-.2754-.0527-.5684-.0791-.8789-.0791-.5274 0-.9346.1553-1.2217.4658-.2871.3047-.4307.7442-.4307 1.3184v1.0019h3.5157v-.8086c0-1.0605.3017-1.8867.9052-2.4785.6094-.5918 1.4678-.8877 2.5752-.8877.6563 0 1.4854.1787 2.4873.5362l-.2724 1.3711c-.7324-.293-1.4326-.4395-2.1006-.4395-.6973 0-1.2012.1553-1.5117.4658-.3047.3106-.4571.7822-.4571 1.4151v.8261h1.9512v1.2569H20.54V59h-1.6259v-8.2529h-3.5157V59h-1.6259zm11.9091 0h-1.6259v-9.5098h1.6259V59zm4.4209 0h-1.6259V45.5h1.6259V59zm4.377 0h-1.626v-9.5098h1.626V59zm-1.7578-12.0322c0-.2637.0791-.4864.2373-.668.164-.1816.4043-.2725.7207-.2725s.5566.0909.7207.2725c.1641.1816.2461.4043.2461.668 0 .2636-.082.4834-.2461.6592-.1641.1757-.4043.2636-.7207.2636s-.5567-.0879-.7207-.2636c-.1582-.1758-.2373-.3956-.2373-.6592zM42.9609 59c-.0937-.1875-.1699-.5215-.2285-1.002-.7558.7852-1.6582 1.1778-2.707 1.1778-.9375 0-1.708-.2637-2.3115-.791-.5977-.5332-.8965-1.2071-.8965-2.0215 0-.9903.375-1.7578 1.125-2.3028.7558-.5507 1.8164-.8261 3.1816-.8261h1.5821v-.7471c0-.5684-.17-1.0195-.5098-1.3535-.3399-.3399-.8408-.5098-1.5029-.5098-.5801 0-1.0664.1465-1.459.4395-.3926.2929-.5889.6474-.5889 1.0635h-1.6348c0-.4747.167-.9317.501-1.3711.3399-.4454.7969-.7969 1.3711-1.0547.5801-.2578 1.2158-.3867 1.9072-.3867 1.0957 0 1.9541.2753 2.5752.8261.6211.5449.9434 1.2979.9668 2.2588v4.377c0 .873.1114 1.5674.334 2.083V59h-1.7051zm-2.6982-1.2393c.5098 0 .9932-.1318 1.4502-.3955.457-.2636.7881-.6064.9932-1.0283v-1.9512h-1.2745c-1.9921 0-2.9882.5831-2.9882 1.7491 0 .5097.1699.9082.5097 1.1953.3399.2871.7764.4306 1.3096.4306zm8.8242-10.5732v2.3027h1.7754v1.2569h-1.7754v5.8974c0 .3809.0791.668.2373.8614.1582.1875.4278.2812.8086.2812.1875 0 .4453-.0351.7734-.1055V59c-.4277.1172-.8437.1758-1.248.1758-.7266 0-1.2744-.2197-1.6436-.6592-.3691-.4395-.5537-1.0635-.5537-1.8721v-5.8974h-1.7314v-1.2569h1.7314v-2.3027h1.626zM54.5361 59h-1.6259v-9.5098h1.6259V59zm-1.7578-12.0322c0-.2637.0791-.4864.2373-.668.1641-.1816.4043-.2725.7207-.2725s.5567.0909.7207.2725c.1641.1816.2461.4043.2461.668 0 .2636-.082.4834-.2461.6592-.164.1757-.4043.2636-.7207.2636s-.5566-.0879-.7207-.2636c-.1582-.1758-.2373-.3956-.2373-.6592zm3.9375 7.1894c0-.9316.1817-1.7695.5449-2.5136.3692-.7442.8789-1.3184 1.5293-1.7227.6563-.4043 1.4034-.6064 2.2412-.6064 1.295 0 2.3409.4482 3.1377 1.3447.8028.8965 1.2041 2.0888 1.2041 3.5771v.1143c0 .9258-.1787 1.7578-.5361 2.4961-.3515.7324-.8584 1.3037-1.5205 1.7138-.6562.4102-1.4121.6153-2.2676.6153-1.289 0-2.3349-.4483-3.1377-1.3447-.7968-.8965-1.1953-2.0831-1.1953-3.5596v-.1143zm1.6348.1934c0 1.0547.2432 1.9014.7295 2.54.4922.6387 1.1484.958 1.9687.958.8262 0 1.4824-.3222 1.9688-.9668.4863-.6504.7295-1.5586.7295-2.7246 0-1.0429-.2491-1.8867-.7471-2.5312-.4922-.6504-1.1484-.9756-1.9688-.9756-.8027 0-1.4501.3193-1.9423.958-.4922.6387-.7383 1.5527-.7383 2.7422zm10.5996-4.8604l.0527 1.1953c.7266-.914 1.6758-1.371 2.8477-1.371 2.0098 0 3.0234 1.1337 3.041 3.4013V59h-1.626v-6.293c-.0058-.6855-.164-1.1924-.4746-1.5205-.3047-.3281-.7822-.4922-1.4326-.4922-.5273 0-.9902.1407-1.3887.4219-.3984.2813-.709.6504-.9316 1.1074V59h-1.626v-9.5098h1.5381zm13.9307 6.9873c0-.4394-.167-.7793-.501-1.0195-.3281-.2461-.9053-.457-1.7315-.6328-.8203-.1758-1.4736-.3867-1.9599-.6328-.4805-.2461-.8379-.5391-1.0723-.8789-.2285-.3399-.3428-.7442-.3428-1.2129 0-.7793.3282-1.4385.9844-1.9776.6621-.539 1.5059-.8085 2.5313-.8085 1.0781 0 1.9511.2783 2.6191.8349.6738.5567 1.0107 1.2686 1.0107 2.1358h-1.6347c0-.4454-.1904-.8291-.5713-1.1514-.375-.3223-.8496-.4834-1.4238-.4834-.5918 0-1.0547.1289-1.3887.3867-.334.2578-.501.5947-.501 1.0108 0 .3925.1553.6884.4658.8876.3106.1993.8702.3897 1.6787.5713.8145.1817 1.4737.3985 1.9776.6504.5039.252.876.5567 1.1162.9141.2461.3516.3691.7822.3691 1.292 0 .8496-.3398 1.5322-1.0195 2.0478-.6797.5098-1.5615.7647-2.6455.7647-.7617 0-1.4356-.1348-2.0215-.4043-.5859-.2695-1.0459-.6445-1.3799-1.125-.3281-.4863-.4922-1.0108-.4922-1.5733h1.626c.0293.545.2461.9786.6504 1.3008.4102.3164.9492.4746 1.6172.4746.6152 0 1.1074-.123 1.4766-.3691.375-.252.5625-.5859.5625-1.002z" fill="#000"/><path d="M50.8965 33H34.127v-2.3379l8.8593-9.8437c1.3125-1.4883 2.2149-2.6954 2.7071-3.6211.5039-.9375.7558-1.9043.7558-2.9004 0-1.336-.4043-2.4317-1.2129-3.2871-.8086-.8555-1.8867-1.28324-3.2343-1.28324-1.6172 0-2.877.46294-3.7793 1.38864-.8907.9141-1.336 2.1914-1.336 3.8321h-3.2519c0-2.3555.7558-4.2598 2.2675-5.71292 1.5235-1.45313 3.5567-2.17969 6.0997-2.17969 2.3789 0 4.2597.62695 5.6425 1.88086 1.3828 1.24215 2.0743 2.90035 2.0743 4.97465 0 2.5195-1.6055 5.5195-4.8165 9l-6.8554 7.4355h12.8496V33z" fill="red"/></svg>