<svg width="279" height="22" viewBox="0 0 279 22" fill="none" xmlns="http://www.w3.org/2000/svg"><path d="M8.55176 13.6602H3.19043L1.98633 17H.246094L5.13281 4.20312h1.47657L11.5049 17H9.77344l-1.22168-3.3398zM3.7002 12.2715h4.35058L5.87109 6.28613 3.7002 12.2715zm15.0381 3.7881c-.6328.7441-1.5615 1.1162-2.7862 1.1162-1.0136 0-1.7871-.293-2.3203-.8789-.5273-.5918-.7939-1.4649-.7998-2.6192V7.49023h1.626v6.14357c0 1.4414.5859 2.1621 1.7578 2.1621 1.2422 0 2.0684-.4629 2.4785-1.3887V7.49023h1.626V17h-1.5469l-.0351-.9404zm6.2666-10.8721v2.30273h1.7754v1.25684h-1.7754v5.89743c0 .3809.0791.668.2373.8614.1582.1875.4277.2812.8086.2812.1875 0 .4453-.0351.7734-.1055V17c-.4277.1172-.8437.1758-1.248.1758-.7266 0-1.2744-.2197-1.6436-.6592-.3691-.4395-.5537-1.0635-.5537-1.8721V8.74707h-1.7314V7.49023h1.7314V5.1875h1.626zm5.3086 3.4541c.7207-.88476 1.6582-1.32715 2.8125-1.32715 2.0097 0 3.0234 1.13379 3.041 3.40135V17h-1.626v-6.293c-.0058-.6855-.164-1.19235-.4746-1.52048-.3047-.32812-.7822-.49218-1.4326-.49218-.5274 0-.9902.14062-1.3887.42187-.3984.28125-.709.65039-.9316 1.10739V17h-1.626V3.5h1.626v5.1416zm7.8574 3.5156c0-.9316.1816-1.7695.5449-2.51365.3692-.74414.8789-1.31835 1.5293-1.72265.6563-.4043 1.4033-.60645 2.2412-.60645 1.2949 0 2.3408.44825 3.1377 1.34473.8028.89648 1.2041 2.08882 1.2041 3.57712v.1143c0 .9258-.1787 1.7578-.5361 2.4961-.3516.7324-.8584 1.3037-1.5205 1.7138-.6563.4102-1.4121.6153-2.2676.6153-1.2891 0-2.335-.4483-3.1377-1.3447-.7969-.8965-1.1953-2.0831-1.1953-3.5596v-.1143zm1.6348.1934c0 1.0547.2431 1.9014.7295 2.54.4921.6387 1.1484.958 1.9687.958.8262 0 1.4824-.3222 1.9688-.9668.4863-.6504.7294-1.5586.7294-2.7246 0-1.0429-.249-1.8867-.747-2.53122-.4922-.65039-1.1485-.97559-1.9688-.97559-.8027 0-1.4502.31934-1.9424.95801-.4921.6387-.7382 1.5527-.7382 2.7422zm13.6582-3.40138c-.2461-.04102-.5127-.06152-.7998-.06152-1.0664 0-1.7901.4541-2.1709 1.3623V17h-1.626V7.49023h1.582l.0264 1.09864c.5332-.84961 1.289-1.27442 2.2676-1.27442.3164 0 .5566.04102.7207.12305v1.51172zm5.625 4.61428c0-.6153.1699-1.1807.5097-1.6963.3457-.5156 1.002-1.1162 1.9688-1.8018-.5684-.69138-.9492-1.24802-1.1426-1.66989-.1934-.42188-.29-.84082-.29-1.25684 0-.97265.2871-1.73437.8613-2.28515.5742-.55079 1.3535-.82618 2.3379-.82618.8789 0 1.6055.25782 2.1797.77344.5742.50977.8613 1.1543.8613 1.9336 0 .51562-.1318.99316-.3955 1.43261-.2578.4336-.7119.89063-1.3623 1.3711l-.9404.69431 2.8476 3.4014c.3985-.7617.5977-1.6084.5977-2.54h1.4677c0 1.4941-.3603 2.7333-1.081 3.7177L69.3369 17h-1.9512l-.8525-1.0107c-.4336.3867-.9434.6826-1.5293.8877-.5801.1992-1.1719.2988-1.7754.2988-1.248 0-2.25-.3311-3.0058-.9932-.7559-.6621-1.1338-1.5351-1.1338-2.6191zm4.1396 2.2851c.8613 0 1.6494-.3281 2.3643-.9843l-3.1201-3.7354-.2901.2109c-.9785.7207-1.4678 1.462-1.4678 2.2237 0 .6914.2227 1.2451.668 1.6611.4512.416 1.0664.624 1.8457.624zm-1.4678-8.76266c0 .5625.3457 1.26562 1.0372 2.10937l1.0371-.72949c.3984-.28125.6709-.54785.8173-.7998.1465-.25782.2198-.56836.2198-.93164 0-.39258-.1465-.71778-.4395-.97559-.293-.26367-.6621-.39551-1.1074-.39551-.4805 0-.8613.16406-1.1426.49219-.2812.32226-.4219.73242-.4219 1.23047zM80.042 11.8232h-3.0059V17h-1.6963V4.20312h4.2364c1.4414 0 2.5488.32813 3.3222.98438.7793.65625 1.169 1.61133 1.169 2.86523 0 .79688-.2168 1.49122-.6504 2.08297-.4277.5918-1.0254 1.0342-1.793 1.3272l3.0059 5.4316V17h-1.8106l-2.7773-5.1768zm-3.0059-1.3798h2.5928c.8379 0 1.5029-.2168 1.9951-.65043.4981-.43359.7471-1.01367.7471-1.74024 0-.79101-.2373-1.39746-.7119-1.81933-.4688-.42188-1.1485-.63574-2.0391-.6416h-2.584v4.8516zm13.0957 6.7324c-1.289 0-2.3379-.4219-3.1464-1.2656-.8086-.8497-1.2129-1.9834-1.2129-3.4014V12.21c0-.9434.1787-1.7842.5361-2.5225.3633-.74414.8672-1.32422 1.5117-1.74023.6504-.42188 1.3535-.63282 2.1094-.63282 1.2363 0 2.1973.40723 2.8828 1.22168.6855.81446 1.0283 1.98047 1.0283 3.49807v.6767h-6.4424c.0235.9375.2959 1.6963.8174 2.2764.5274.5742 1.1953.8613 2.0039.8613.5742 0 1.0606-.1172 1.459-.3515.3984-.2344.7471-.545 1.0459-.9317l.9932.7735c-.7969 1.2246-1.9922 1.8369-3.586 1.8369zm-.2021-8.52541c-.6563 0-1.207.24023-1.6524.7207-.4453.47461-.7207 1.14261-.8261 2.00391h4.7636v-.123c-.0468-.8262-.2695-1.46489-.6679-1.91606-.3985-.45703-.9375-.68555-1.6172-.68555zm11.3383 5.82711c0-.4394-.167-.7793-.501-1.0195-.329-.2461-.9057-.457-1.7318-.6328-.8204-.1758-1.4737-.3867-1.96-.6328-.4805-.2461-.8379-.5391-1.0723-.8789-.2285-.3399-.3427-.7442-.3427-1.2129 0-.77931.3281-1.43849.9843-1.97755.6621-.53907 1.5059-.8086 2.5313-.8086 1.0782 0 1.9512.27832 2.6192.83496.674.55664 1.011 1.26856 1.011 2.13579h-1.635c0-.44536-.191-.82915-.571-1.15141-.375-.32227-.85-.4834-1.4242-.4834-.5918 0-1.0547.12891-1.3887.38672-.334.25781-.501.59473-.501 1.01079 0 .3925.1553.6884.4659.8876.3105.1993.8701.3897 1.6787.5713.8143.1817 1.4733.3985 1.9773.6504.504.252.876.5567 1.116.9141.247.3516.37.7822.37 1.292 0 .8496-.34 1.5322-1.02 2.0478-.68.5098-1.562.7647-2.6455.7647-.7617 0-1.4355-.1348-2.0215-.4043-.5859-.2695-1.0459-.6445-1.3799-1.125-.3281-.4863-.4921-1.0108-.4921-1.5733h1.6259c.0293.545.2461.9786.6504 1.3008.4102.3164.9492.4746 1.6172.4746.6153 0 1.1075-.123 1.4765-.3691.375-.252.563-.5859.563-1.002zm7.69 2.6983c-1.289 0-2.338-.4219-3.146-1.2656-.809-.8497-1.213-1.9834-1.213-3.4014V12.21c0-.9434.178-1.7842.536-2.5225.363-.74414.867-1.32422 1.511-1.74023.651-.42188 1.354-.63282 2.11-.63282 1.236 0 2.197.40723 2.883 1.22168.685.81446 1.028 1.98047 1.028 3.49807v.6767h-6.442c.023.9375.296 1.6963.817 2.2764.527.5742 1.195.8613 2.004.8613.574 0 1.06-.1172 1.459-.3515.398-.2344.747-.545 1.046-.9317l.993.7735c-.797 1.2246-1.992 1.8369-3.586 1.8369zm-.202-8.52541c-.656 0-1.207.24023-1.652.7207-.446.47461-.721 1.14261-.827 2.00391h4.764v-.123c-.047-.8262-.27-1.46489-.668-1.91606-.398-.45703-.937-.68555-1.617-.68555zM120.428 17c-.094-.1875-.17-.5215-.229-1.002-.756.7852-1.658 1.1778-2.707 1.1778-.937 0-1.708-.2637-2.311-.791-.598-.5332-.897-1.2071-.897-2.0215 0-.9903.375-1.7578 1.125-2.3028.756-.5507 1.817-.8261 3.182-.8261h1.582v-.7471c0-.56835-.17-1.01953-.51-1.35351-.34-.33984-.841-.50977-1.503-.50977-.58 0-1.066.14649-1.459.43946-.392.29297-.589.64746-.589 1.06352h-1.634c0-.47466.167-.93169.501-1.37114.339-.44531.796-.79688 1.371-1.05469.58-.25781 1.215-.38672 1.907-.38672 1.096 0 1.954.27539 2.575.82617.621.54493.943 1.29786.967 2.25878v4.377c0 .873.111 1.5674.334 2.083V17h-1.705zm-2.699-1.2393c.51 0 .994-.1318 1.451-.3955.457-.2636.788-.6064.993-1.0283v-1.9512h-1.275c-1.992 0-2.988.5831-2.988 1.7491 0 .5097.17.9082.51 1.1953.34.2871.776.4306 1.309.4306zm11.215-6.81148c-.246-.04102-.512-.06152-.799-.06152-1.067 0-1.791.4541-2.171 1.3623V17h-1.626V7.49023h1.582l.026 1.09864c.533-.84961 1.289-1.27442 2.268-1.27442.316 0 .556.04102.72.12305v1.51172zm5.142 6.89938c.58 0 1.087-.1757 1.52-.5273.434-.3516.674-.791.721-1.3184h1.538c-.029.545-.217 1.0635-.562 1.5557-.346.4922-.809.8848-1.389 1.1777-.574.293-1.184.4395-1.828.4395-1.295 0-2.326-.4307-3.094-1.292-.762-.8672-1.142-2.0508-1.142-3.5508v-.2725c0-.9257.17-1.749.509-2.46968.34-.7207.827-1.28027 1.459-1.67871.639-.39844 1.392-.59766 2.259-.59766 1.067 0 1.951.31934 2.654.95801.709.63867 1.087 1.46777 1.134 2.48734h-1.538c-.047-.6153-.281-1.11918-.703-1.51175-.416-.39844-.932-.59766-1.547-.59766-.826 0-1.468.29883-1.925.89649-.451.59182-.676 1.45022-.676 2.57522v.3076c0 1.0957.225 1.9394.676 2.5312.452.5918 1.096.8877 1.934.8877zm7.233-7.207c.721-.88476 1.659-1.32715 2.813-1.32715 2.01 0 3.023 1.13379 3.041 3.40135V17h-1.626v-6.293c-.006-.6855-.164-1.19235-.475-1.52048-.304-.32812-.782-.49218-1.432-.49218-.528 0-.991.14062-1.389.42187s-.709.65039-.932 1.10739V17h-1.626V3.5h1.626v5.1416zM154.327 17V4.20312h3.612c1.114 0 2.098.2461 2.954.73829.855.49218 1.514 1.19238 1.977 2.10058.469.90821.706 1.95117.712 3.12891v.8174c0 1.207-.234 2.2646-.703 3.1728-.463.9082-1.128 1.6055-1.995 2.0918-.862.4864-1.866.7354-3.015.7471h-3.542zm1.688-11.4082v10.0283h1.775c1.301 0 2.312-.4043 3.032-1.2129.727-.8086 1.09-1.9599 1.09-3.4541v-.747c0-1.45317-.343-2.5811-1.028-3.38383-.68-.8086-1.647-1.21875-2.901-1.23047h-1.968zm13.816 11.584c-1.289 0-2.338-.4219-3.146-1.2656-.809-.8497-1.213-1.9834-1.213-3.4014V12.21c0-.9434.178-1.7842.536-2.5225.363-.74414.867-1.32422 1.512-1.74023.65-.42188 1.353-.63282 2.109-.63282 1.236 0 2.197.40723 2.883 1.22168.685.81446 1.028 1.98047 1.028 3.49807v.6767h-6.442c.023.9375.296 1.6963.817 2.2764.527.5742 1.195.8613 2.004.8613.574 0 1.06-.1172 1.459-.3515.398-.2344.747-.545 1.046-.9317l.993.7735c-.797 1.2246-1.992 1.8369-3.586 1.8369zm-.202-8.52541c-.656 0-1.207.24023-1.652.7207-.446.47461-.721 1.14261-.827 2.00391h4.764v-.123c-.047-.8262-.269-1.46489-.668-1.91606-.398-.45703-.937-.68555-1.617-.68555zm8.007-3.46289v2.30273h1.775v1.25684h-1.775v5.89743c0 .3809.079.668.237.8614.158.1875.428.2812.809.2812.187 0 .445-.0351.773-.1055V17c-.428.1172-.844.1758-1.248.1758-.727 0-1.274-.2197-1.644-.6592-.369-.4395-.553-1.0635-.553-1.8721V8.74707h-1.732V7.49023h1.732V5.1875h1.626zM187.189 17c-.093-.1875-.169-.5215-.228-1.002-.756.7852-1.658 1.1778-2.707 1.1778-.938 0-1.708-.2637-2.312-.791-.597-.5332-.896-1.2071-.896-2.0215 0-.9903.375-1.7578 1.125-2.3028.756-.5507 1.816-.8261 3.182-.8261h1.582v-.7471c0-.56835-.17-1.01953-.51-1.35351-.34-.33984-.841-.50977-1.503-.50977-.58 0-1.067.14649-1.459.43946-.393.29297-.589.64746-.589 1.06352h-1.635c0-.47466.167-.93169.501-1.37114.34-.44531.797-.79688 1.371-1.05469.58-.25781 1.216-.38672 1.908-.38672 1.095 0 1.954.27539 2.575.82617.621.54493.943 1.29786.967 2.25878v4.377c0 .873.111 1.5674.334 2.083V17h-1.706zm-2.698-1.2393c.51 0 .993-.1318 1.45-.3955.457-.2636.788-.6064.994-1.0283v-1.9512h-1.275c-1.992 0-2.988.5831-2.988 1.7491 0 .5097.17.9082.51 1.1953.339.2871.776.4306 1.309.4306zM192.876 17h-1.626V7.49023h1.626V17zm-1.758-12.03223c0-.26367.079-.48632.237-.66797.165-.18164.405-.27246.721-.27246.317 0 .557.09082.721.27246.164.18165.246.4043.246.66797 0 .26368-.082.4834-.246.65918-.164.17578-.404.26367-.721.26367-.316 0-.556-.08789-.721-.26367-.158-.17578-.237-.3955-.237-.65918zM197.253 17h-1.626V3.5h1.626V17zm8.147-2.5225c0-.4394-.167-.7793-.501-1.0195-.328-.2461-.905-.457-1.731-.6328-.82-.1758-1.474-.3867-1.96-.6328-.48-.2461-.838-.5391-1.072-.8789-.229-.3399-.343-.7442-.343-1.2129 0-.77931.328-1.43849.984-1.97755.662-.53907 1.506-.8086 2.532-.8086 1.078 0 1.951.27832 2.619.83496.674.55664 1.01 1.26856 1.01 2.13579h-1.634c0-.44536-.191-.82915-.572-1.15141-.375-.32227-.849-.4834-1.423-.4834-.592 0-1.055.12891-1.389.38672-.334.25781-.501.59473-.501 1.01079 0 .3925.155.6884.466.8876.31.1993.87.3897 1.678.5713.815.1817 1.474.3985 1.978.6504.504.252.876.5567 1.116.9141.246.3516.369.7822.369 1.292 0 .8496-.339 1.5322-1.019 2.0478-.68.5098-1.562.7647-2.646.7647-.761 0-1.435-.1348-2.021-.4043-.586-.2695-1.046-.6445-1.38-1.125-.328-.4863-.492-1.0108-.492-1.5733h1.626c.029.545.246.9786.65 1.3008.41.3164.949.4746 1.617.4746.616 0 1.108-.123 1.477-.3691.375-.252.562-.5859.562-1.002zm8.148-2.6718c0-1.3243.176-2.59574.527-3.81449.358-1.21875.888-2.32617 1.591-3.32226.703-.9961 1.433-1.69922 2.188-2.10938l.334 1.07227c-.855.65625-1.558 1.6582-2.109 3.00586-.545 1.34765-.844 2.85644-.896 4.5264l-.009.747c0 2.2618.413 4.2246 1.239 5.8887.498.9961 1.09 1.7754 1.775 2.3379l-.334.9932c-.779-.4336-1.523-1.1602-2.232-2.1797-1.383-1.9922-2.074-4.3741-2.074-7.1455zm14.308-6.68851L222.557 17h-1.705l5.282-11.46094h-6.926V4.20312h8.648v.91407zm11.075 3.83203c-.246-.04102-.513-.06152-.8-.06152-1.067 0-1.79.4541-2.171 1.3623V17h-1.626V7.49023h1.582l.026 1.09864c.534-.84961 1.289-1.27442 2.268-1.27442.316 0 .557.04102.721.12305v1.51172zm.896 3.20798c0-.9316.182-1.7695.545-2.51365.369-.74414.879-1.31835 1.529-1.72265.657-.4043 1.404-.60645 2.242-.60645 1.295 0 2.34.44825 3.137 1.34473.803.89648 1.204 2.08882 1.204 3.57712v.1143c0 .9258-.178 1.7578-.536 2.4961-.351.7324-.858 1.3037-1.52 1.7138-.657.4102-1.412.6153-2.268.6153-1.289 0-2.335-.4483-3.138-1.3447-.796-.8965-1.195-2.0831-1.195-3.5596v-.1143zm1.635.1934c0 1.0547.243 1.9014.729 2.54.493.6387 1.149.958 1.969.958.826 0 1.483-.3222 1.969-.9668.486-.6504.729-1.5586.729-2.7246 0-1.0429-.249-1.8867-.747-2.53122-.492-.65039-1.148-.97559-1.968-.97559-.803 0-1.451.31934-1.943.95801-.492.6387-.738 1.5527-.738 2.7422zm17.481 2.4082l1.828-7.26857h1.626L259.629 17h-1.318l-2.312-7.20703L253.749 17h-1.318l-2.76-9.50977h1.617l1.872 7.11917 2.215-7.11917h1.31l2.258 7.26857zm10.653-.2813c0-.4394-.167-.7793-.501-1.0195-.328-.2461-.906-.457-1.732-.6328-.82-.1758-1.473-.3867-1.96-.6328-.48-.2461-.838-.5391-1.072-.8789-.228-.3399-.343-.7442-.343-1.2129 0-.77931.328-1.43849.985-1.97755.662-.53907 1.506-.8086 2.531-.8086 1.078 0 1.951.27832 2.619.83496.674.55664 1.011 1.26856 1.011 2.13579h-1.635c0-.44536-.19-.82915-.571-1.15141-.375-.32227-.85-.4834-1.424-.4834-.592 0-1.055.12891-1.389.38672-.334.25781-.501.59473-.501 1.01079 0 .3925.156.6884.466.8876.311.1993.87.3897 1.679.5713.814.1817 1.473.3985 1.977.6504.504.252.876.5567 1.117.9141.246.3516.369.7822.369 1.292 0 .8496-.34 1.5322-1.02 2.0478-.68.5098-1.561.7647-2.645.7647-.762 0-1.436-.1348-2.022-.4043-.586-.2695-1.046-.6445-1.38-1.125-.328-.4863-.492-1.0108-.492-1.5733h1.626c.029.545.246.9786.65 1.3008.411.3164.95.4746 1.618.4746.615 0 1.107-.123 1.476-.3691.375-.252.563-.5859.563-1.002zm7.497-2.5839c0 1.3066-.173 2.5605-.519 3.7617-.34 1.1953-.864 2.2998-1.573 3.3135-.703 1.0136-1.441 1.7343-2.215 2.1621l-.343-.9932c.903-.6914 1.626-1.7637 2.171-3.2168.551-1.459.832-3.0762.844-4.8516v-.2812c0-1.2305-.129-2.37306-.387-3.42775-.258-1.06055-.618-2.00976-1.081-2.84765-.457-.8379-.972-1.49122-1.547-1.95997l.343-.99316c.774.42773 1.509 1.14258 2.206 2.14453.703 1.00195 1.228 2.10645 1.573 3.31348.352 1.20703.528 2.49902.528 3.87602z" fill="#000"/></svg>