<svg width="284" height="38" viewBox="0 0 284 38" fill="none" xmlns="http://www.w3.org/2000/svg"><rect width="284" height="38" rx="7" fill="red"/><path d="M70.7119 20.7373c-.0996 1.377-.6094 2.4609-1.5293 3.252-.914.791-2.1211 1.1865-3.6211 1.1865-1.6406 0-2.9326-.5508-3.876-1.6524-.9375-1.1074-1.4062-2.625-1.4062-4.5527v-.7822c0-1.2305.2168-2.3145.6504-3.252s1.0517-1.6553 1.8545-2.1533c.8086-.5039 1.7461-.7559 2.8125-.7559 1.4765 0 2.666.3956 3.5683 1.1866.9024.791 1.4239 1.9013 1.5645 3.331h-2.6367c-.0645-.8261-.2959-1.4238-.6944-1.7929-.3925-.375-.9931-.5625-1.8017-.5625-.8789 0-1.5381.3164-1.9776.9492-.4336.6269-.6562 1.6025-.6679 2.9267v.9668c0 1.3828.208 2.3936.624 3.0323.4219.6386 1.084.958 1.9863.958.8145 0 1.4209-.1846 1.8194-.5537.4043-.375.6357-.9522.6943-1.7315h2.6367zm4.3682 2.1445h5.5986V25h-8.2353V12.2031h2.6367v10.6787zm14.8183-3.4277h-5.0625v3.4277h5.9414V25h-8.5781V12.2031h8.5606v2.1358h-5.9239v3.0498h5.0625v2.0654zm9.6504 2.9092h-4.623L94.0469 25h-2.8037l4.7636-12.7969h2.4434L103.24 25h-2.803l-.8882-2.6367zm-3.9111-2.1358h3.1992l-1.6084-4.79-1.5908 4.79zm13.5353.0879h-2.101V25h-2.636V12.2031h4.754c1.512 0 2.678.3369 3.498 1.0108.821.6738 1.231 1.6259 1.231 2.8564 0 .8731-.19 1.6026-.571 2.1885-.375.5801-.947 1.043-1.714 1.3887l2.768 5.2295V25h-2.83l-2.399-4.6846zm-2.101-2.1357h2.127c.662 0 1.175-.167 1.538-.501.364-.3398.545-.8057.545-1.3975 0-.6035-.173-1.0781-.518-1.4238-.34-.3457-.865-.5185-1.574-.5185h-2.118v3.8408zm19.978 3.4629c0-.4981-.176-.8789-.528-1.1426-.351-.2695-.984-.5508-1.898-.8438-.914-.2988-1.638-.5917-2.171-.8789-1.453-.7851-2.18-1.8427-2.18-3.1728 0-.6914.194-1.3066.581-1.8457.392-.5449.952-.9697 1.678-1.2744.733-.3047 1.553-.4571 2.461-.4571.914 0 1.729.167 2.444.501.714.3281 1.268.794 1.661 1.3975.398.6035.597 1.289.597 2.0566h-2.636c0-.5859-.185-1.04-.554-1.3623-.369-.3281-.888-.4922-1.556-.4922-.644 0-1.145.1377-1.503.4131-.357.2695-.536.627-.536 1.0723 0 .416.208.7646.624 1.0459.422.2812 1.04.5449 1.855.791 1.5.4512 2.592 1.0107 3.278 1.6787.686.668 1.028 1.5 1.028 2.4961 0 1.1074-.419 1.9775-1.257 2.6104-.837.6269-1.965.9404-3.383.9404-.985 0-1.881-.1787-2.69-.5362-.808-.3632-1.427-.8584-1.854-1.4853-.422-.627-.633-1.3535-.633-2.1797h2.645c0 1.4121.844 2.1182 2.532 2.1182.627 0 1.116-.126 1.467-.378.352-.2578.528-.6152.528-1.0722zm12.138-2.1885h-5.063v3.4277h5.941V25h-8.578V12.2031h8.561v2.1358h-5.924v3.0498h5.063v2.0654zm5.062 3.4277h5.599V25h-8.236V12.2031h2.637v10.6787zm14.818-3.4277h-5.062v3.4277h5.941V25h-8.578V12.2031h8.561v2.1358h-5.924v3.0498h5.062v2.0654zm12.472 1.2832c-.1 1.377-.609 2.4609-1.529 3.252-.914.791-2.121 1.1865-3.621 1.1865-1.641 0-2.933-.5508-3.876-1.6524-.938-1.1074-1.407-2.625-1.407-4.5527v-.7822c0-1.2305.217-2.3145.651-3.252.433-.9375 1.052-1.6553 1.854-2.1533.809-.5039 1.746-.7559 2.813-.7559 1.476 0 2.666.3956 3.568 1.1866.903.791 1.424 1.9013 1.565 3.331h-2.637c-.065-.8261-.296-1.4238-.694-1.7929-.393-.375-.994-.5625-1.802-.5625-.879 0-1.538.3164-1.978.9492-.433.6269-.656 1.6025-.668 2.9267v.9668c0 1.3828.208 2.3936.624 3.0323.422.6386 1.084.958 1.987.958.814 0 1.421-.1846 1.819-.5537.404-.375.636-.9522.694-1.7315h2.637zm11.101-6.3984h-3.92V25h-2.637V14.3389h-3.867v-2.1358h10.424v2.1358zM186.956 25h-2.637V12.2031h2.637V25zm12.964-6.1084c0 1.2598-.223 2.3643-.668 3.3135-.445.9492-1.084 1.6816-1.916 2.1972-.826.5157-1.775.7735-2.848.7735-1.06 0-2.007-.2549-2.839-.7647-.832-.5097-1.476-1.2363-1.933-2.1797-.457-.9492-.689-2.039-.695-3.2695v-.6328c0-1.2598.226-2.3672.677-3.3223.457-.9609 1.099-1.6963 1.925-2.206.832-.5156 1.781-.7735 2.848-.7735 1.066 0 2.012.2579 2.839.7735.832.5097 1.473 1.2451 1.924 2.206.457.9551.686 2.0596.686 3.3135v.5713zm-2.672-.5801c0-1.3418-.24-2.3613-.721-3.0586-.48-.6972-1.166-1.0459-2.056-1.0459-.885 0-1.568.3457-2.048 1.0371-.481.6856-.724 1.6934-.73 3.0235v.624c0 1.3066.241 2.3203.721 3.041.481.7207 1.172 1.0811 2.074 1.0811.885 0 1.565-.3457 2.039-1.0371.475-.6973.715-1.711.721-3.0411v-.624zM212.242 25h-2.637l-5.132-8.4199V25h-2.637V12.2031h2.637l5.141 8.4375v-8.4375h2.628V25zm8.939-3.3574c0-.4981-.176-.8789-.528-1.1426-.351-.2695-.984-.5508-1.898-.8438-.914-.2988-1.638-.5917-2.171-.8789-1.453-.7851-2.18-1.8427-2.18-3.1728 0-.6914.194-1.3066.58-1.8457.393-.5449.953-.9697 1.679-1.2744.733-.3047 1.553-.4571 2.461-.4571.914 0 1.729.167 2.443.501.715.3281 1.269.794 1.662 1.3975.398.6035.597 1.289.597 2.0566h-2.637c0-.5859-.184-1.04-.553-1.3623-.369-.3281-.888-.4922-1.556-.4922-.644 0-1.145.1377-1.503.4131-.357.2695-.536.627-.536 1.0723 0 .416.208.7646.624 1.0459.422.2812 1.04.5449 1.855.791 1.5.4512 2.592 1.0107 3.278 1.6787.685.668 1.028 1.5 1.028 2.4961 0 1.1074-.419 1.9775-1.257 2.6104-.838.6269-1.965.9404-3.383.9404-.985 0-1.881-.1787-2.69-.5362-.808-.3632-1.427-.8584-1.854-1.4853-.422-.627-.633-1.3535-.633-2.1797h2.645c0 1.4121.844 2.1182 2.532 2.1182.626 0 1.116-.126 1.467-.378.352-.2578.528-.6152.528-1.0722z" fill="#fff"/></svg>