<svg width="359" height="272" viewBox="0 0 359 272" fill="none" xmlns="http://www.w3.org/2000/svg"><path d="M2.73438 33V7.40625h7.87502c2.25 0 4.2597.50977 6.0293 1.5293 1.7812 1.00781 3.1699 2.44925 4.166 4.32425.9961 1.8632 1.4941 3.9843 1.4941 6.3632v1.1778c0 2.3789-.4922 4.4941-1.4765 6.3457-.9727 1.8515-2.3496 3.2871-4.1309 4.3066-1.7812 1.0196-3.791 1.5352-6.0293 1.5469H2.73438zm5.27343-21.3223v17.086h2.54879c2.0625 0 3.6387-.6739 4.7286-2.0215 1.0898-1.3477 1.6464-3.2754 1.6699-5.7832v-1.3535c0-2.6016-.5391-4.5703-1.6172-5.9063-1.0781-1.3476-2.6543-2.0215-4.7285-2.0215H8.00781zM37.2051 31.0664c-1.2539 1.5234-2.9883 2.2852-5.2031 2.2852-2.0391 0-3.5977-.586-4.6758-1.7578-1.0664-1.1719-1.6114-2.8887-1.6348-5.1504V13.9805h5.0801v12.2871c0 1.9804.9023 2.9707 2.707 2.9707 1.7227 0 2.9063-.5977 3.5508-1.793V13.9805h5.0977V33h-4.7813l-.1406-1.9336zm16.664-1.8105c.9375 0 1.6993-.2579 2.2852-.7735.5859-.5156.8906-1.2012.9141-2.0566h4.7636c-.0117 1.289-.3632 2.4726-1.0547 3.5508-.6914 1.0664-1.6406 1.8984-2.8476 2.4961-1.1953.5859-2.5195.8789-3.9727.8789-2.7187 0-4.8632-.8614-6.4336-2.584-1.5703-1.7344-2.3554-4.125-2.3554-7.1719v-.334c0-2.9297.7793-5.2676 2.3379-7.0137 1.5586-1.746 3.6972-2.6191 6.416-2.6191 2.3789 0 4.2832.6797 5.7129 2.0391 1.4414 1.3476 2.1738 3.1465 2.1972 5.3965h-4.7636c-.0235-.9844-.3282-1.7813-.9141-2.3907-.5859-.6211-1.3594-.9316-2.3203-.9316-1.1836 0-2.0801.4336-2.6895 1.3008-.5976.8554-.8965 2.25-.8965 4.1836v.5273c0 1.957.2989 3.3633.8965 4.2188.5977.8554 1.5059 1.2832 2.7246 1.2832zm15.8204-13.2012c1.3476-1.6172 3.041-2.4258 5.08-2.4258 4.125 0 6.2168 2.3965 6.2754 7.1895V33h-5.0801V20.959c0-1.0899-.2343-1.8926-.7031-2.4082-.4687-.5274-1.248-.791-2.3379-.791-1.4883 0-2.5664.5742-3.2343 1.7226V33h-5.0801V6h5.0801v10.0547zm23.9414 17.2969c-2.7891 0-5.0625-.8555-6.8204-2.5664-1.746-1.711-2.6191-3.9903-2.6191-6.8379v-.4922c0-1.9102.3691-3.6153 1.1074-5.1153.7383-1.5117 1.7813-2.6718 3.1289-3.4804 1.3594-.8203 2.9063-1.2305 4.6407-1.2305 2.6015 0 4.6464.8203 6.1347 2.4609 1.4999 1.6407 2.2499 3.9668 2.2499 6.9786v2.0742H89.3418c.1641 1.2422.6562 2.2383 1.4766 2.9883.832.75 1.8808 1.125 3.1464 1.125 1.9571 0 3.4864-.709 4.5879-2.127l2.4963 2.7949c-.762 1.0782-1.7931 1.9219-3.0939 2.5313-1.3008.5976-2.7422.8965-4.3242.8965zm-.5801-15.6094c-1.0078 0-1.8281.3398-2.461 1.0195-.621.6797-1.0195 1.6524-1.1953 2.918h7.0664v-.4043c-.0234-1.125-.3281-1.9922-.914-2.6016-.586-.6211-1.418-.9316-2.4961-.9316zm15.9782-3.7617l.159 2.1972c1.359-1.6992 3.181-2.5488 5.466-2.5488 2.016 0 3.516.5918 4.5 1.7754.985 1.1836 1.489 2.9531 1.512 5.3086V33h-5.08V20.8359c0-1.0781-.234-1.8574-.703-2.3379-.469-.4921-1.248-.7382-2.338-.7382-1.43 0-2.502.6093-3.217 1.8281V33h-5.08V13.9805h4.781zm20.18 0l.158 2.1972c1.36-1.6992 3.182-2.5488 5.467-2.5488 2.016 0 3.516.5918 4.5 1.7754.984 1.1836 1.488 2.9531 1.512 5.3086V33h-5.08V20.8359c0-1.0781-.235-1.8574-.704-2.3379-.468-.4921-1.248-.7382-2.337-.7382-1.43 0-2.502.6093-3.217 1.8281V33h-5.08V13.9805h4.781zm24.258 19.3711c-2.789 0-5.063-.8555-6.821-2.5664-1.746-1.711-2.619-3.9903-2.619-6.8379v-.4922c0-1.9102.369-3.6153 1.108-5.1153.738-1.5117 1.781-2.6718 3.129-3.4804 1.359-.8203 2.906-1.2305 4.64-1.2305 2.602 0 4.647.8203 6.135 2.4609 1.5 1.6407 2.25 3.9668 2.25 6.9786v2.0742h-12.111c.164 1.2422.656 2.2383 1.476 2.9883.832.75 1.881 1.125 3.147 1.125 1.957 0 3.486-.709 4.588-2.127l2.496 2.7949c-.762 1.0782-1.793 1.9219-3.094 2.5313-1.301.5976-2.742.8965-4.324.8965zm-.58-15.6094c-1.008 0-1.828.3398-2.461 1.0195-.621.6797-1.02 1.6524-1.196 2.918h7.067v-.4043c-.024-1.125-.328-1.9922-.914-2.6016-.586-.6211-1.418-.9316-2.496-.9316zm35.051 9.9844h-9.247L176.934 33h-5.608l9.528-25.59375h4.886L195.32 33h-5.607l-1.775-5.2734zm-7.823-4.2715h6.399l-3.217-9.5801-3.182 9.5801zm25.172 5.8008c.938 0 1.699-.2579 2.285-.7735.586-.5156.891-1.2012.914-2.0566h4.764c-.012 1.289-.363 2.4726-1.055 3.5508-.691 1.0664-1.64 1.8984-2.847 2.4961-1.196.5859-2.52.8789-3.973.8789-2.719 0-4.863-.8614-6.434-2.584-1.57-1.7344-2.355-4.125-2.355-7.1719v-.334c0-2.9297.779-5.2676 2.338-7.0137 1.558-1.746 3.697-2.6191 6.416-2.6191 2.379 0 4.283.6797 5.713 2.0391 1.441 1.3476 2.174 3.1465 2.197 5.3965h-4.764c-.023-.9844-.328-1.7813-.914-2.3907-.586-.6211-1.359-.9316-2.32-.9316-1.184 0-2.08.4336-2.69 1.3008-.597.8554-.896 2.25-.896 4.1836v.5273c0 1.957.299 3.3633.896 4.2188.598.8554 1.506 1.2832 2.725 1.2832zm18.774 0c.937 0 1.699-.2579 2.285-.7735.586-.5156.89-1.2012.914-2.0566h4.763c-.011 1.289-.363 2.4726-1.054 3.5508-.692 1.0664-1.641 1.8984-2.848 2.4961-1.195.5859-2.519.8789-3.973.8789-2.718 0-4.863-.8614-6.433-2.584-1.57-1.7344-2.356-4.125-2.356-7.1719v-.334c0-2.9297.78-5.2676 2.338-7.0137 1.559-1.746 3.698-2.6191 6.416-2.6191 2.379 0 4.283.6797 5.713 2.0391 1.442 1.3476 2.174 3.1465 2.197 5.3965h-4.763c-.024-.9844-.328-1.7813-.914-2.3907-.586-.6211-1.36-.9316-2.321-.9316-1.183 0-2.08.4336-2.689 1.3008-.598.8554-.897 2.25-.897 4.1836v.5273c0 1.957.299 3.3633.897 4.2188.598.8554 1.506 1.2832 2.725 1.2832zm19.617 4.0957c-2.789 0-5.063-.8555-6.821-2.5664-1.746-1.711-2.619-3.9903-2.619-6.8379v-.4922c0-1.9102.369-3.6153 1.108-5.1153.738-1.5117 1.781-2.6718 3.129-3.4804 1.359-.8203 2.906-1.2305 4.64-1.2305 2.602 0 4.647.8203 6.135 2.4609 1.5 1.6407 2.25 3.9668 2.25 6.9786v2.0742h-12.111c.164 1.2422.656 2.2383 1.476 2.9883.832.75 1.881 1.125 3.147 1.125 1.957 0 3.486-.709 4.588-2.127l2.496 2.7949c-.762 1.0782-1.793 1.9219-3.094 2.5313-1.301.5976-2.742.8965-4.324.8965zm-.58-15.6094c-1.008 0-1.828.3398-2.461 1.0195-.621.6797-1.02 1.6524-1.196 2.918h7.067v-.4043c-.024-1.125-.328-1.9922-.914-2.6016-.586-.6211-1.418-.9316-2.496-.9316zM259.762 33h-5.098V6h5.098v27zm12.955.3516c-2.789 0-5.063-.8555-6.821-2.5664-1.746-1.711-2.619-3.9903-2.619-6.8379v-.4922c0-1.9102.369-3.6153 1.108-5.1153.738-1.5117 1.781-2.6718 3.129-3.4804 1.359-.8203 2.906-1.2305 4.64-1.2305 2.602 0 4.647.8203 6.135 2.4609 1.5 1.6407 2.25 3.9668 2.25 6.9786v2.0742h-12.111c.164 1.2422.656 2.2383 1.476 2.9883.832.75 1.881 1.125 3.147 1.125 1.957 0 3.486-.709 4.588-2.127l2.496 2.7949c-.762 1.0782-1.793 1.9219-3.094 2.5313-1.301.5976-2.742.8965-4.324.8965zm-.58-15.6094c-1.008 0-1.828.3398-2.461 1.0195-.621.6797-1.02 1.6524-1.196 2.918h7.067v-.4043c-.024-1.125-.328-1.9922-.914-2.6016-.586-.6211-1.418-.9316-2.496-.9316zm21.99 1.0019c-.691-.0937-1.301-.1406-1.828-.1406-1.922 0-3.182.6504-3.779 1.9512V33h-5.081V13.9805h4.799l.141 2.2675c1.019-1.746 2.432-2.6191 4.236-2.6191.563 0 1.09.0762 1.582.2285l-.07 4.8867zM307.082 33c-.234-.457-.404-1.0254-.51-1.7051-1.23 1.3711-2.83 2.0567-4.799 2.0567-1.863 0-3.41-.5391-4.64-1.6172-1.219-1.0782-1.828-2.4375-1.828-4.0782 0-2.0156.744-3.5624 2.232-4.6406 1.5-1.0781 3.662-1.623 6.486-1.6347h2.338V20.291c0-.8789-.228-1.582-.685-2.1094-.446-.5273-1.155-.791-2.127-.791-.856 0-1.529.2051-2.022.6153-.48.4101-.72.9726-.72 1.6875h-5.08c0-1.1016.339-2.1211 1.019-3.0586.68-.9375 1.641-1.67 2.883-2.1973 1.242-.5391 2.637-.8086 4.183-.8086 2.344 0 4.202.5918 5.573 1.7754 1.383 1.1719 2.074 2.8242 2.074 4.957v8.2442c.012 1.8047.264 3.1699.756 4.0957V33h-5.133zm-4.201-3.5332c.75 0 1.441-.1641 2.074-.4922.633-.3398 1.102-.791 1.406-1.3535v-3.2695h-1.898c-2.543 0-3.897.8789-4.061 2.6367l-.017.2988c0 .6328.222 1.1543.668 1.5645.445.4101 1.054.6152 1.828.6152zm18.562-20.16211v4.67581h3.252v3.7265h-3.252v9.4922c0 .7031.135 1.207.405 1.5117.269.3047.785.4571 1.547.4571.562 0 1.06-.041 1.494-.1231v3.8496c-.996.3047-2.022.4571-3.077.4571-3.562 0-5.378-1.7989-5.449-5.3965V17.707h-2.777v-3.7265h2.777V9.30469h5.08zm4.764 14.00981c0-1.8868.363-3.5684 1.09-5.045.726-1.4765 1.769-2.6191 3.129-3.4277 1.371-.8086 2.959-1.2129 4.763-1.2129 2.567 0 4.659.7852 6.276 2.3555 1.629 1.5703 2.537 3.7031 2.724 6.3984l.036 1.3008c0 2.918-.815 5.2617-2.444 7.0312-1.629 1.7579-3.814 2.6368-6.556 2.6368-2.743 0-4.934-.8789-6.575-2.6368-1.629-1.7578-2.443-4.1484-2.443-7.1718v-.2285zm5.08.3691c0 1.8047.34 3.1875 1.02 4.1484.679.9492 1.652 1.4239 2.918 1.4239 1.23 0 2.191-.4688 2.882-1.4063.692-.9492 1.038-2.4609 1.038-4.5351 0-1.7696-.346-3.1407-1.038-4.1133-.691-.9727-1.664-1.459-2.918-1.459-1.242 0-2.203.4863-2.882 1.459-.68.9609-1.02 2.455-1.02 4.4824zm26.754-4.9395c-.691-.0937-1.301-.1406-1.828-.1406-1.922 0-3.182.6504-3.779 1.9512V33h-5.08V13.9805h4.798l.141 2.2675c1.019-1.746 2.432-2.6191 4.236-2.6191.563 0 1.09.0762 1.582.2285l-.07 4.8867z" fill="#fff"/><path fill="#F9F9F9" stroke="#757575" d="M167.5 242.5h160v29h-160z"/><path fill="#757575" d="M167 270h161v2H167z"/><path d="M311 261l-6.928-6.75h13.856L311 261zM186.529 257.674h-3.717V263h-1.09v-12.797h4.157c1.365 0 2.432.331 3.199.993.768.662 1.151 1.588 1.151 2.778 0 .82-.24 1.544-.72 2.171-.481.626-1.125 1.06-1.934 1.3l3.199 5.441V263h-1.151l-3.094-5.326zm-3.717-.923h3.313c.908 0 1.638-.258 2.188-.773.551-.516.827-1.184.827-2.004 0-.903-.287-1.603-.862-2.101-.574-.498-1.38-.747-2.417-.747h-3.049v5.625zm13.798 6.425c-.808 0-1.541-.199-2.197-.598-.65-.398-1.157-.952-1.52-1.661-.364-.715-.545-1.515-.545-2.399v-.378c0-.914.175-1.738.527-2.47.357-.732.853-1.307 1.485-1.723.633-.422 1.319-.633 2.057-.633 1.154 0 2.068.396 2.742 1.187.68.785 1.02 1.86 1.02 3.226v.588h-6.785v.203c0 1.078.307 1.977.922 2.698.622.715 1.401 1.072 2.338 1.072.563 0 1.058-.102 1.486-.308.433-.205.826-.533 1.177-.984l.66.501c-.774 1.119-1.896 1.679-3.367 1.679zm-.193-8.965c-.791 0-1.459.29-2.004.87-.539.58-.867 1.359-.984 2.338h5.704v-.114c-.029-.914-.29-1.659-.782-2.233-.493-.574-1.137-.861-1.934-.861zm11.505 6.372c0-.521-.211-.94-.633-1.257-.416-.316-1.046-.562-1.89-.738-.843-.182-1.5-.387-1.968-.615-.463-.235-.809-.519-1.037-.853-.223-.334-.334-.738-.334-1.213 0-.75.313-1.368.94-1.854.627-.492 1.43-.739 2.408-.739 1.061 0 1.91.264 2.549.791.645.522.967 1.205.967 2.048h-1.055c0-.556-.234-1.019-.703-1.388-.463-.369-1.049-.554-1.758-.554-.691 0-1.248.155-1.67.466-.416.304-.624.703-.624 1.195 0 .475.173.844.519 1.107.351.258.987.496 1.907.712.926.217 1.617.449 2.074.695.463.246.806.542 1.029.887.222.346.334.765.334 1.257 0 .803-.326 1.445-.976 1.925-.645.481-1.488.721-2.531.721-1.108 0-2.007-.267-2.699-.8-.685-.539-1.028-1.219-1.028-2.039h1.055c.041.615.299 1.096.773 1.441.481.34 1.114.51 1.899.51.732 0 1.324-.161 1.775-.483.451-.323.677-.73.677-1.222zm7.11 2.593c-.808 0-1.541-.199-2.197-.598-.65-.398-1.157-.952-1.521-1.661-.363-.715-.544-1.515-.544-2.399v-.378c0-.914.175-1.738.527-2.47.357-.732.852-1.307 1.485-1.723.633-.422 1.319-.633 2.057-.633 1.154 0 2.068.396 2.742 1.187.68.785 1.02 1.86 1.02 3.226v.588h-6.786v.203c0 1.078.308 1.977.923 2.698.621.715 1.401 1.072 2.338 1.072.563 0 1.058-.102 1.486-.308.433-.205.826-.533 1.177-.984l.659.501c-.773 1.119-1.895 1.679-3.366 1.679zm-.193-8.965c-.791 0-1.459.29-2.004.87-.539.58-.867 1.359-.984 2.338h5.704v-.114c-.03-.914-.29-1.659-.783-2.233-.492-.574-1.136-.861-1.933-.861zM226.651 263c-.105-.299-.172-.741-.202-1.327-.369.48-.841.852-1.415 1.116-.568.258-1.172.387-1.81.387-.914 0-1.656-.255-2.224-.765-.562-.51-.844-1.154-.844-1.933 0-.926.384-1.659 1.152-2.198.773-.539 1.848-.808 3.225-.808h1.907v-1.081c0-.68-.211-1.213-.632-1.6-.416-.393-1.026-.589-1.829-.589-.732 0-1.338.188-1.819.563-.48.375-.721.826-.721 1.353l-1.054-.009c0-.755.351-1.409 1.054-1.96.704-.556 1.568-.835 2.593-.835 1.061 0 1.896.267 2.505.8.615.528.932 1.266.949 2.215v4.5c0 .92.097 1.609.29 2.066V263h-1.125zm-3.304-.756c.703 0 1.33-.17 1.881-.51.556-.339.96-.794 1.212-1.362v-2.092h-1.88c-1.049.012-1.87.205-2.461.58-.592.369-.888.879-.888 1.53 0 .533.196.975.589 1.327.398.351.914.527 1.547.527zm10.467.044c.733 0 1.345-.205 1.837-.615.498-.416.768-.952.809-1.609h1.011c-.03.581-.211 1.111-.545 1.591-.334.475-.78.847-1.336 1.116-.551.27-1.143.405-1.776.405-1.248 0-2.238-.434-2.97-1.301-.727-.867-1.09-2.033-1.09-3.498v-.316c0-.938.164-1.767.492-2.488.328-.72.797-1.277 1.406-1.67.616-.392 1.333-.589 2.154-.589 1.043 0 1.901.311 2.575.932.68.621 1.043 1.439 1.09 2.452h-1.011c-.047-.744-.316-1.344-.809-1.802-.486-.457-1.101-.685-1.845-.685-.95 0-1.688.343-2.215 1.028-.522.686-.782 1.647-.782 2.883v.308c0 1.213.26 2.159.782 2.839.527.679 1.268 1.019 2.223 1.019zm6.812-7.189c.346-.569.788-1.008 1.327-1.319.539-.31 1.128-.466 1.767-.466 1.019 0 1.778.288 2.276.862.498.574.75 1.435.756 2.584V263h-1.046v-6.249c-.006-.85-.187-1.482-.545-1.898-.351-.416-.917-.624-1.696-.624-.651 0-1.228.205-1.732.615-.498.404-.867.952-1.107 1.643V263h-1.046v-13.5h1.046v5.599zm20.698 4.755c0-.709-.249-1.269-.747-1.679-.498-.416-1.409-.809-2.733-1.178-1.324-.375-2.291-.782-2.901-1.222-.867-.621-1.3-1.435-1.3-2.443 0-.978.401-1.772 1.204-2.382.808-.615 1.84-.923 3.093-.923.85 0 1.609.164 2.277.493.674.328 1.195.785 1.564 1.371s.554 1.239.554 1.96h-1.09c0-.873-.299-1.574-.896-2.101-.598-.533-1.401-.8-2.409-.8-.978 0-1.757.22-2.337.659-.581.434-.871 1.002-.871 1.705 0 .651.261 1.181.783 1.591.521.41 1.356.774 2.505 1.09 1.148.311 2.018.636 2.61.976.592.334 1.037.735 1.336 1.204.299.469.448 1.022.448 1.661 0 1.008-.404 1.816-1.213 2.426-.803.609-1.863.914-3.181.914-.903 0-1.732-.161-2.488-.484-.75-.322-1.321-.773-1.714-1.353-.386-.58-.58-1.245-.58-1.995h1.081c0 .902.337 1.614 1.011 2.135.674.522 1.57.783 2.69.783.996 0 1.795-.22 2.399-.659.603-.44.905-1.023.905-1.749zm4.817-8.798v2.434h1.968v.862h-1.968v6.336c0 .528.093.92.281 1.178.193.258.513.387.958.387.176 0 .46-.029.852-.088l.044.861c-.275.1-.65.15-1.125.15-.72 0-1.245-.208-1.573-.624-.328-.422-.492-1.04-.492-1.855v-6.345h-1.749v-.862h1.749v-2.434h1.055zM276.292 263c-.105-.299-.173-.741-.202-1.327-.369.48-.841.852-1.415 1.116-.569.258-1.172.387-1.811.387-.914 0-1.655-.255-2.223-.765-.563-.51-.844-1.154-.844-1.933 0-.926.384-1.659 1.151-2.198.774-.539 1.849-.808 3.226-.808h1.907v-1.081c0-.68-.211-1.213-.633-1.6-.416-.393-1.025-.589-1.828-.589-.732 0-1.339.188-1.819.563-.481.375-.721.826-.721 1.353l-1.055-.009c0-.755.352-1.409 1.055-1.96.703-.556 1.567-.835 2.593-.835 1.06 0 1.895.267 2.505.8.615.528.931 1.266.949 2.215v4.5c0 .92.097 1.609.29 2.066V263h-1.125zm-3.305-.756c.703 0 1.33-.17 1.881-.51.557-.339.961-.794 1.213-1.362v-2.092H274.2c-1.049.012-1.869.205-2.461.58-.592.369-.887.879-.887 1.53 0 .533.196.975.588 1.327.399.351.914.527 1.547.527zm6.531-4.087c0-1.488.328-2.666.984-3.533.662-.873 1.559-1.31 2.689-1.31 1.295 0 2.28.516 2.954 1.547l.052-1.371h.985v9.317c0 1.224-.343 2.194-1.029 2.909-.685.715-1.614 1.072-2.786 1.072-.662 0-1.295-.149-1.898-.448-.598-.293-1.07-.686-1.415-1.178l.589-.633c.744.914 1.628 1.371 2.654 1.371.879 0 1.564-.26 2.057-.782.492-.515.747-1.233.764-2.153v-1.195c-.674.937-1.655 1.406-2.944 1.406-1.102 0-1.986-.44-2.654-1.319-.668-.878-1.002-2.065-1.002-3.559v-.141zm1.063.185c0 1.213.243 2.171.73 2.874.486.697 1.171 1.046 2.056 1.046 1.295 0 2.212-.58 2.751-1.741v-4.42c-.246-.61-.6-1.073-1.063-1.389-.463-.322-1.02-.483-1.67-.483-.885 0-1.573.348-2.066 1.045-.492.692-.738 1.714-.738 3.068zm13.025 4.834c-.808 0-1.541-.199-2.197-.598-.65-.398-1.157-.952-1.52-1.661-.364-.715-.545-1.515-.545-2.399v-.378c0-.914.176-1.738.527-2.47.358-.732.853-1.307 1.485-1.723.633-.422 1.319-.633 2.057-.633 1.154 0 2.068.396 2.742 1.187.68.785 1.02 1.86 1.02 3.226v.588h-6.785v.203c0 1.078.307 1.977.922 2.698.622.715 1.401 1.072 2.338 1.072.563 0 1.058-.102 1.486-.308.433-.205.826-.533 1.177-.984l.66.501c-.774 1.119-1.896 1.679-3.367 1.679zm-.193-8.965c-.791 0-1.459.29-2.004.87-.539.58-.867 1.359-.984 2.338h5.704v-.114c-.029-.914-.29-1.659-.782-2.233-.493-.574-1.137-.861-1.934-.861z" fill="#000"/></svg>