<svg width="76" height="30" viewBox="0 0 76 30" fill="none" xmlns="http://www.w3.org/2000/svg"><path fill="#F9F9F9" stroke="#757575" d="M.5.5h75v29H.5z"/><path fill="#757575" d="M0 28h76v2H0z"/><path d="M18.501 15.1816l3.9111-6.97848h1.2481l-4.6231 7.98048V21h-1.081v-4.8164l-4.6143-7.98048h1.2832l3.876 6.97848zm9.8789 5.9942c-.8086 0-1.541-.1992-2.1973-.5977-.6504-.3984-1.1572-.9521-1.5205-1.6611-.3633-.7149-.5449-1.5147-.5449-2.3994v-.378c0-.914.1758-1.7373.5273-2.4697.3575-.7324.8526-1.3066 1.4854-1.7226.6328-.4219 1.3183-.6328 2.0566-.6328 1.1543 0 2.0684.3955 2.7422 1.1865.6797.7851 1.0195 1.8603 1.0195 3.2256v.5888h-6.7851v.2022c0 1.0781.3076 1.9775.9228 2.6982.6211.7149 1.4004 1.0723 2.3379 1.0723.5625 0 1.0576-.1026 1.4854-.3076.4336-.2051.8262-.5332 1.1777-.9844l.6592.501c-.7734 1.1191-1.8955 1.6787-3.3662 1.6787zm-.1934-8.9649c-.791 0-1.459.2901-2.0039.8702-.539.58-.8672 1.3593-.9844 2.3378h5.7041v-.1142c-.0293-.9141-.29-1.6582-.7822-2.2324-.4922-.5743-1.1367-.8614-1.9336-.8614zM39.999 21c-.1054-.2988-.1728-.7412-.2021-1.3271-.3692.4804-.8408.8525-1.4151 1.1162-.5683.2578-1.1718.3867-1.8105.3867-.9141 0-1.6553-.2549-2.2236-.7647-.5625-.5097-.8438-1.1543-.8438-1.9336 0-.9257.3838-1.6582 1.1514-2.1972.7734-.5391 1.8486-.8086 3.2256-.8086h1.9072v-1.0811c0-.6797-.211-1.2129-.6328-1.5996-.416-.3926-1.0254-.5889-1.8282-.5889-.7324 0-1.3388.1875-1.8193.5625-.4805.375-.7207.8262-.7207 1.3536l-1.0547-.0088c0-.7559.3516-1.4092 1.0547-1.96.7031-.5566 1.5674-.8349 2.5928-.8349 1.0605 0 1.8955.2666 2.5049.7998.6152.5273.9316 1.2656.9492 2.2148v4.5c0 .9199.0967 1.6084.29 2.0654V21h-1.125zm-3.3047-.7559c.7032 0 1.3301-.1699 1.8809-.5097.5566-.3399.9609-.794 1.2129-1.3623v-2.0918h-1.8809c-1.0488.0117-1.8691.2051-2.4609.5801-.5918.3691-.8877.8789-.8877 1.5292 0 .5333.1963.9756.5889 1.3272.3984.3516.914.5273 1.5468.5273zm11.3467-7.8574c-.2226-.041-.4599-.0615-.7119-.0615-.6562 0-1.2129.1846-1.6699.5537-.4512.3633-.7735.8936-.9668 1.5908V21h-1.0459v-9.5098h1.0283l.0176 1.5118c.5566-1.125 1.4502-1.6875 2.6806-1.6875.293 0 .5245.038.6944.1142l-.0264.958zM62 19l-6.9282-6.75h13.8564L62 19z" fill="#000"/></svg>