<svg width="114" height="30" viewBox="0 0 114 30" fill="none" xmlns="http://www.w3.org/2000/svg"><path fill="#F9F9F9" stroke="#757575" d="M.5.5h113v29H.5z"/><path fill="#757575" d="M0 28h114v2H0z"/><path d="M98 19l-6.9282-6.75h13.8562L98 19zM15.8291 15.7881V21H14.748V8.20312h4.3594c1.3301 0 2.3789.33985 3.1465 1.01954.7734.67968 1.1602 1.61424 1.1602 2.80374 0 1.2011-.3721 2.1298-1.1162 2.7861-.7383.6504-1.8106.9756-3.2168.9756h-3.252zm0-.9141h3.2783c1.0488 0 1.8487-.249 2.3994-.747.5508-.4981.8262-1.1924.8262-2.0831 0-.8847-.2754-1.5878-.8262-2.10933-.5449-.52734-1.3213-.79687-2.3291-.80859h-3.3486V14.874zm15.8818 4.9219c-.6328.9199-1.6435 1.3799-3.0322 1.3799-1.0137 0-1.7842-.293-2.3115-.8789-.5274-.5918-.7969-1.4649-.8086-2.6192v-6.1875h1.0459v6.0557c0 1.8105.7324 2.7158 2.1973 2.7158 1.5234 0 2.4873-.6299 2.8916-1.8896v-6.8819h1.0546V21h-1.0195l-.0176-1.2041zm11.4346-3.4541c0 1.4824-.3281 2.6602-.9844 3.5332-.6562.8672-1.5381 1.3008-2.6455 1.3008-1.3242 0-2.3261-.4922-3.0058-1.4766L36.4658 21h-.9844V7.5h1.0459v5.3701c.668-1.0371 1.6582-1.5556 2.9707-1.5556 1.125 0 2.0127.4306 2.6631 1.2919.6563.8555.9844 2.0479.9844 3.5772v.1582zm-1.0547-.1846c0-1.2539-.2431-2.2207-.7295-2.9004-.4863-.6855-1.1718-1.0283-2.0566-1.0283-.6738 0-1.2451.167-1.7139.501-.4687.3281-.8232.8115-1.0635 1.4502v4.2891c.5274 1.1953 1.459 1.7929 2.795 1.7929.8672 0 1.5439-.3428 2.0302-1.0283.4922-.6855.7383-1.7109.7383-3.0762zM46.6523 21h-1.0546V7.5h1.0546V21zm4.043 0h-1.0547v-9.5098h1.0547V21zM49.4561 8.73926c0-.19922.0644-.36621.1933-.50098.1289-.14062.3047-.21094.5274-.21094.2226 0 .3984.07032.5273.21094.1348.13477.2021.30176.2021.50098s-.0673.36621-.2021.50097c-.1289.13477-.3047.20215-.5273.20215-.2227 0-.3985-.06738-.5274-.20215-.1289-.13476-.1933-.30175-.1933-.50097zm9.7998 9.84374c0-.5215-.211-.9404-.6329-1.2568-.416-.3164-1.0459-.5625-1.8896-.7383-.8438-.1817-1.5-.3867-1.9688-.6152-.4628-.2344-.8085-.5186-1.0371-.8526-.2226-.334-.3339-.7383-.3339-1.2129 0-.75.3134-1.3681.9404-1.8545.6269-.4922 1.4297-.7382 2.4082-.7382 1.0605 0 1.9101.2636 2.5488.791.6445.5215.9668 1.2041.9668 2.0478h-1.0547c0-.5566-.2343-1.0195-.7031-1.3887-.4629-.3691-1.0488-.5537-1.7578-.5537-.6914 0-1.2481.1553-1.6699.4659-.4161.3046-.6241.7031-.6241 1.1953 0 .4746.1729.8437.5186 1.1074.3516.2578.9873.4951 1.9072.7119.9258.2168 1.6172.4482 2.0742.6943.4629.2461.8057.542 1.0284.8877.2226.3457.3339.7647.3339 1.2569 0 .8027-.3251 1.4443-.9755 1.9248-.6446.4804-1.4883.7207-2.5313.7207-1.1074 0-2.0068-.2666-2.6982-.7998-.6856-.5391-1.0284-1.2188-1.0284-2.0391h1.0547c.0411.6152.2989 1.0957.7735 1.4414.4804.3399 1.1133.5098 1.8984.5098.7324 0 1.3242-.1611 1.7754-.4834.4512-.3223.6768-.7295.6768-1.2217zm4.4736-5.4844c.3457-.5683.7881-1.0078 1.3271-1.3183.5391-.3106 1.128-.4658 1.7666-.4658 1.0196 0 1.7784.2871 2.2764.8613.4981.5742.75 1.4355.7559 2.584V21h-1.0459v-6.249c-.0059-.8496-.1875-1.4824-.545-1.8985-.3515-.416-.9169-.624-1.6962-.624-.6504 0-1.2276.2051-1.7315.6153-.498.4042-.8672.9521-1.1074 1.6435V21h-1.0459V7.5h1.0459v5.5986zm12.5156 8.0772c-.8086 0-1.541-.1992-2.1972-.5977-.6504-.3984-1.1573-.9521-1.5206-1.6611-.3632-.7149-.5449-1.5147-.5449-2.3994v-.378c0-.914.1758-1.7373.5274-2.4697.3574-.7324.8525-1.3066 1.4853-1.7226.6328-.4219 1.3184-.6328 2.0567-.6328 1.1543 0 2.0683.3955 2.7421 1.1865.6797.7851 1.0196 1.8603 1.0196 3.2256v.5888h-6.7852v.2022c0 1.0781.3076 1.9775.9229 2.6982.6211.7149 1.4004 1.0723 2.3379 1.0723.5625 0 1.0576-.1026 1.4853-.3076.4336-.2051.8262-.5332 1.1777-.9844l.6592.501c-.7734 1.1191-1.8955 1.6787-3.3662 1.6787zm-.1933-8.9649c-.7911 0-1.459.2901-2.0039.8702-.5391.58-.8672 1.3593-.9844 2.3378h5.7041v-.1142c-.0293-.9141-.2901-1.6582-.7822-2.2324-.4922-.5743-1.1368-.8614-1.9336-.8614zm10.2041.1758c-.2227-.041-.46-.0615-.712-.0615-.6562 0-1.2128.1846-1.6699.5537-.4511.3633-.7734.8936-.9668 1.5908V21h-1.0459v-9.5098h1.0283l.0176 1.5118c.5567-1.125 1.4502-1.6875 2.6807-1.6875.293 0 .5244.038.6943.1142l-.0263.958z" fill="#000"/></svg>