<svg width="118" height="30" viewBox="0 0 118 30" fill="none" xmlns="http://www.w3.org/2000/svg"><path fill="#F9F9F9" stroke="#757575" d="M.5.5h117v29H.5z"/><path fill="#757575" d="M0 28h118v2H0z"/><path d="M101 19l-6.9282-6.75h13.8562L101 19zM21.6562 17.4141h-5.8095L14.5283 21h-1.1338l4.8428-12.79688h1.0283L24.1084 21h-1.125l-1.3272-3.5859zm-5.4755-.9229h5.1328l-2.5664-6.96972-2.5664 6.96972zM26.5078 21v-8.6484h-1.5732v-.8614h1.5732v-1.1513c0-.97269.2461-1.71976.7383-2.24124.498-.52149 1.1894-.78223 2.0742-.78223.3985 0 .7705.0498 1.1162.14941l-.0791.87891c-.2929-.07031-.6123-.10547-.958-.10547-.5801 0-1.0312.18164-1.3535.54492-.3223.35742-.4834.86719-.4834 1.5293v1.1777h4.0518v-.9756c0-1.01362.2753-1.79878.8261-2.35542.5508-.5625 1.3272-.84375 2.3291-.84375.7852 0 1.5938.17285 2.4258.51855l-.1758.90528c-.7324-.31055-1.4619-.46582-2.1884-.46582-1.4473 0-2.1709.75879-2.1709 2.27636v.9404h2.2324v.8614h-2.2324V21h-1.0459v-8.6484h-4.0518V21h-1.0547zm11.2588 0h-1.0547v-9.5098h1.0547V21zm4.0693 0h-1.0547V7.5h1.0547V21zm4.043 0h-1.0547v-9.5098h1.0547V21zM44.6396 8.73926c0-.19922.0645-.36621.1934-.50098.1289-.14062.3047-.21094.5274-.21094.2226 0 .3984.07032.5273.21094.1348.13477.2021.30176.2021.50098s-.0673.36621-.2021.50097c-.1289.13477-.3047.20215-.5273.20215-.2227 0-.3985-.06738-.5274-.20215-.1289-.13476-.1934-.30175-.1934-.50097zM54.7471 21c-.1055-.2988-.1729-.7412-.2022-1.3271-.3691.4804-.8408.8525-1.415 1.1162-.5684.2578-1.1719.3867-1.8106.3867-.914 0-1.6552-.2549-2.2236-.7647-.5625-.5097-.8437-1.1543-.8437-1.9336 0-.9257.3837-1.6582 1.1513-2.1972.7735-.5391 1.8487-.8086 3.2256-.8086h1.9072v-1.0811c0-.6797-.2109-1.2129-.6328-1.5996-.416-.3926-1.0254-.5889-1.8281-.5889-.7324 0-1.3389.1875-1.8193.5625-.4805.375-.7207.8262-.7207 1.3536l-1.0547-.0088c0-.7559.3515-1.4092 1.0547-1.96.7031-.5566 1.5673-.8349 2.5927-.8349 1.0606 0 1.8955.2666 2.5049.7998.6152.5273.9317 1.2656.9492 2.2148v4.5c0 .9199.0967 1.6084.2901 2.0654V21h-1.125zm-3.3047-.7559c.7031 0 1.3301-.1699 1.8808-.5097.5567-.3399.961-.794 1.2129-1.3623v-2.0918h-1.8808c-1.0489.0117-1.8692.2051-2.461.5801-.5918.3691-.8877.8789-.8877 1.5292 0 .5333.1963.9756.5889 1.3272.3984.3516.9141.5273 1.5469.5273zm8.5869-11.18844v2.43454h1.9687v.8614h-1.9687v6.3369c0 .5273.0937.9199.2812 1.1777.1934.2578.5127.3867.9581.3867.1757 0 .4599-.0293.8525-.0879l.0439.8614c-.2754.0996-.6504.1494-1.125.1494-.7207 0-1.2451-.208-1.5732-.624-.3281-.4219-.4922-1.0401-.4922-1.8545v-6.3457h-1.749v-.8614h1.749V9.05566h1.0547zM65.3555 21h-1.0547v-9.5098h1.0547V21zM64.1162 8.73926c0-.19922.0645-.36621.1934-.50098.1289-.14062.3047-.21094.5273-.21094.2227 0 .3985.07032.5274.21094.1347.13477.2021.30176.2021.50098s-.0674.36621-.2021.50097c-.1289.13477-.3047.20215-.5274.20215-.2226 0-.3984-.06738-.5273-.20215-.1289-.13476-.1934-.30175-.1934-.50097zm3.5244 7.36524c0-.9141.1758-1.7373.5274-2.4697.3574-.7325.8584-1.3008 1.5029-1.7051.6504-.4102 1.3857-.6152 2.2061-.6152 1.2656 0 2.291.4453 3.0761 1.3359.7852.8848 1.1778 2.0596 1.1778 3.5244v.2197c0 .92-.1788 1.7491-.5362 2.4873-.3515.7325-.8496 1.2979-1.4941 1.6963-.6445.3985-1.3799.5977-2.2061.5977-1.2597 0-2.2851-.4424-3.0761-1.3272-.7852-.8906-1.1778-2.0683-1.1778-3.5332v-.2109zm1.0547.29c0 1.1367.293 2.0713.8789 2.8037.5918.7266 1.3653 1.0899 2.3203 1.0899.9493 0 1.7168-.3633 2.3028-1.0899.5918-.7324.8877-1.6962.8877-2.8916v-.2021c0-.7266-.1348-1.3916-.4043-1.9951-.2696-.6035-.6475-1.0694-1.1338-1.3975-.4864-.334-1.043-.501-1.6699-.501-.9375 0-1.7022.3692-2.294 1.1075-.5918.7324-.8877 1.6933-.8877 2.8828v.1933zm10.6172-4.9043l.0352 1.626c.3574-.5859.8027-1.0312 1.3359-1.3359.5332-.3106 1.1221-.4658 1.7666-.4658 1.0195 0 1.7783.2871 2.2764.8613.498.5742.75 1.4355.7558 2.584V21h-1.0459v-6.249c-.0058-.8496-.1875-1.4824-.5449-1.8985-.3516-.416-.917-.624-1.6963-.624-.6504 0-1.2275.2051-1.7314.6153-.4981.4042-.8672.9521-1.1075 1.6435V21h-1.0459v-9.5098h1.002z" fill="#000"/></svg>