<svg width="101" height="30" viewBox="0 0 101 30" fill="none" xmlns="http://www.w3.org/2000/svg"><path fill="#F9F9F9" stroke="#757575" d="M.5.5h100v29H.5z"/><path fill="#757575" d="M0 28h101v2H0z"/><path d="M81 19l-6.9282-6.75h13.8564L81 19zM19.5293 15.6738h-3.7178V21h-1.0898V8.20312h4.1572c1.3652 0 2.4316.33106 3.1992.99317.7676.66211 1.1514 1.58791 1.1514 2.77731 0 .8203-.2402 1.544-.7207 2.1709-.4805.627-1.125 1.0606-1.9336 1.3008l3.1992 5.4404V21H22.623l-3.0937-5.3262zm-3.7178-.9228h3.3135c.9082 0 1.6377-.2578 2.1885-.7735.5508-.5156.8261-1.1836.8261-2.0039 0-.9023-.2871-1.6025-.8613-2.10055-.5742-.49805-1.3799-.74707-2.417-.74707h-3.0498V14.751zm13.7989 6.4248c-.8086 0-1.5411-.1992-2.1973-.5977-.6504-.3984-1.1572-.9521-1.5205-1.6611-.3633-.7149-.5449-1.5147-.5449-2.3994v-.378c0-.914.1757-1.7373.5273-2.4697.3574-.7324.8525-1.3066 1.4854-1.7226.6328-.4219 1.3183-.6328 2.0566-.6328 1.1543 0 2.0684.3955 2.7422 1.1865.6797.7851 1.0195 1.8603 1.0195 3.2256v.5888h-6.7851v.2022c0 1.0781.3076 1.9775.9228 2.6982.6211.7149 1.4004 1.0723 2.3379 1.0723.5625 0 1.0576-.1026 1.4853-.3076.4336-.2051.8262-.5332 1.1778-.9844l.6592.501c-.7735 1.1191-1.8955 1.6787-3.3662 1.6787zm-.1934-8.9649c-.791 0-1.459.2901-2.0039.8702-.5391.58-.8672 1.3593-.9844 2.3378h5.7041v-.1142c-.0293-.9141-.29-1.6582-.7822-2.2324-.4922-.5743-1.1367-.8614-1.9336-.8614zm5.3877 3.9463c0-1.4883.3281-2.666.9844-3.5332.6621-.873 1.5586-1.3095 2.6894-1.3095 1.2949 0 2.2793.5156 2.9531 1.5468l.0528-1.3711h.9844v9.3164c0 1.2246-.3428 2.1944-1.0284 2.9092-.6855.7149-1.6142 1.0723-2.7861 1.0723-.6621 0-1.2949-.1494-1.8984-.4483-.5977-.2929-1.0694-.6855-1.4151-1.1777l.5889-.6328c.7441.9141 1.6289 1.3711 2.6543 1.3711.8789 0 1.5644-.2608 2.0566-.7822.4922-.5157.7471-1.2334.7647-2.1534v-1.1953c-.6739.9375-1.6553 1.4063-2.9444 1.4063-1.1015 0-1.9863-.4395-2.6543-1.3184-.6679-.8789-1.0019-2.0654-1.0019-3.5595v-.1407zm1.0635.1846c0 1.2129.2431 2.1709.7295 2.874.4863.6973 1.1718 1.0459 2.0566 1.0459 1.2949 0 2.2119-.5801 2.751-1.7402v-4.4209c-.2461-.6094-.6006-1.0723-1.0635-1.3887-.4629-.3223-1.0195-.4834-1.6699-.4834-.8848 0-1.5733.3486-2.0655 1.0459-.4921.6914-.7382 1.7139-.7382 3.0674zM46.3887 21H45.334v-9.5098h1.0547V21zM45.1494 8.73926c0-.19922.0645-.36621.1934-.50098.1289-.14062.3047-.21094.5273-.21094.2227 0 .3985.07032.5274.21094.1347.13477.2021.30176.2021.50098s-.0674.36621-.2021.50097c-.1289.13477-.3047.20215-.5274.20215-.2226 0-.3984-.06738-.5273-.20215-.1289-.13476-.1934-.30175-.1934-.50097zm3.5244 7.36524c0-.9141.1758-1.7373.5274-2.4697.3574-.7325.8584-1.3008 1.5029-1.7051.6504-.4102 1.3857-.6152 2.2061-.6152 1.2656 0 2.291.4453 3.0761 1.3359.7852.8848 1.1778 2.0596 1.1778 3.5244v.2197c0 .92-.1787 1.7491-.5362 2.4873-.3515.7325-.8496 1.2979-1.4941 1.6963-.6445.3985-1.3799.5977-2.2061.5977-1.2597 0-2.2851-.4424-3.0761-1.3272-.7852-.8906-1.1778-2.0683-1.1778-3.5332v-.2109zm1.0547.29c0 1.1367.293 2.0713.8789 2.8037.5918.7266 1.3653 1.0899 2.3203 1.0899.9493 0 1.7168-.3633 2.3028-1.0899.5918-.7324.8877-1.6962.8877-2.8916v-.2021c0-.7266-.1348-1.3916-.4043-1.9951-.2696-.6035-.6475-1.0694-1.1338-1.3975-.4863-.334-1.043-.501-1.6699-.501-.9375 0-1.7022.3692-2.294 1.1075-.5918.7324-.8877 1.6933-.8877 2.8828v.1933zm10.6172-4.9043l.0352 1.626c.3574-.5859.8027-1.0312 1.3359-1.3359.5332-.3106 1.1221-.4658 1.7666-.4658 1.0195 0 1.7783.2871 2.2764.8613.498.5742.75 1.4355.7558 2.584V21h-1.0459v-6.249c-.0058-.8496-.1875-1.4824-.5449-1.8985-.3516-.416-.917-.624-1.6963-.624-.6504 0-1.2275.2051-1.7314.6153-.4981.4042-.8672.9521-1.1075 1.6435V21h-1.0458v-9.5098h1.0019z" fill="#000"/></svg>