<svg width="145" height="63" viewBox="0 0 145 63" fill="none" xmlns="http://www.w3.org/2000/svg"><path d="M6.17871 53.8232H3.17285V59H1.47656V46.2031h4.23633c1.44141 0 2.54883.3281 3.32227.9844.77929.6563 1.16894 1.6113 1.16894 2.8652 0 .7969-.2168 1.4912-.65039 2.083-.42773.5918-1.02539 1.0342-1.79297 1.3272l3.00586 5.4316V59H8.95605l-2.77734-5.1768zm-3.00586-1.3798h2.59277c.8379 0 1.50293-.2168 1.99512-.6504.49805-.4336.74707-1.0137.74707-1.7403 0-.791-.2373-1.3974-.71191-1.8193-.46875-.4219-1.14844-.6357-2.03906-.6416H3.17285v4.8516zm13.09575 6.7324c-1.2891 0-2.3379-.4219-3.1465-1.2656-.8086-.8497-1.2129-1.9834-1.2129-3.4014V54.21c0-.9434.1787-1.7842.5361-2.5225.3633-.7441.8672-1.3242 1.5117-1.7402.6504-.4219 1.3535-.6328 2.1094-.6328 1.2363 0 2.1973.4072 2.8828 1.2216.6856.8145 1.0283 1.9805 1.0283 3.4981v.6767h-6.4423c.0234.9375.2959 1.6963.8173 2.2764.5274.5742 1.1954.8613 2.0039.8613.5743 0 1.0606-.1172 1.459-.3515.3985-.2344.7471-.545 1.0459-.9317l.9932.7735c-.7969 1.2246-1.9922 1.8369-3.5859 1.8369zm-.2022-8.5254c-.6562 0-1.207.2402-1.6523.7207-.4453.4746-.7207 1.1426-.8262 2.0039h4.7637v-.123c-.0469-.8262-.2696-1.4649-.668-1.9161-.3984-.457-.9375-.6855-1.6172-.6855zm11.3379 5.8271c0-.4394-.167-.7793-.501-1.0195-.3281-.2461-.9053-.457-1.7314-.6328-.8203-.1758-1.4737-.3867-1.96-.6328-.4805-.2461-.8379-.5391-1.0723-.8789-.2285-.3399-.3427-.7442-.3427-1.2129 0-.7793.3281-1.4385.9843-1.9776.6622-.539 1.5059-.8085 2.5313-.8085 1.0781 0 1.9512.2783 2.6191.8349.6739.5567 1.0108 1.2686 1.0108 2.1358h-1.6348c0-.4454-.1904-.8291-.5713-1.1514-.375-.3223-.8496-.4834-1.4238-.4834-.5918 0-1.0547.1289-1.3887.3867-.334.2578-.5009.5947-.5009 1.0108 0 .3925.1552.6884.4658.8876.3105.1993.8701.3897 1.6787.5713.8144.1817 1.4736.3985 1.9775.6504.5039.252.876.5567 1.1162.9141.2461.3516.3692.7822.3692 1.292 0 .8496-.3399 1.5322-1.0196 2.0478-.6796.5098-1.5615.7647-2.6455.7647-.7617 0-1.4355-.1348-2.0214-.4043-.586-.2695-1.0459-.6445-1.3799-1.125-.3282-.4863-.4922-1.0108-.4922-1.5733h1.626c.0293.545.2461.9786.6503 1.3008.4102.3164.9493.4746 1.6172.4746.6153 0 1.1075-.123 1.4766-.3691.375-.252.5625-.5859.5625-1.002zm7.6904 2.6983c-1.289 0-2.3379-.4219-3.1465-1.2656-.8086-.8497-1.2128-1.9834-1.2128-3.4014V54.21c0-.9434.1787-1.7842.5361-2.5225.3633-.7441.8672-1.3242 1.5117-1.7402.6504-.4219 1.3535-.6328 2.1094-.6328 1.2363 0 2.1972.4072 2.8828 1.2216.6855.8145 1.0283 1.9805 1.0283 3.4981v.6767h-6.4424c.0235.9375.2959 1.6963.8174 2.2764.5274.5742 1.1953.8613 2.0039.8613.5742 0 1.0606-.1172 1.459-.3515.3984-.2344.7471-.545 1.0459-.9317l.9932.7735c-.7969 1.2246-1.9922 1.8369-3.586 1.8369zm-.2021-8.5254c-.6563 0-1.2071.2402-1.6524.7207-.4453.4746-.7207 1.1426-.8261 2.0039h4.7636v-.123c-.0468-.8262-.2695-1.4649-.6679-1.9161-.3985-.457-.9375-.6855-1.6172-.6855zM46.5645 59c-.0938-.1875-.17-.5215-.2286-1.002-.7558.7852-1.6582 1.1778-2.707 1.1778-.9375 0-1.708-.2637-2.3115-.791-.5977-.5332-.8965-1.2071-.8965-2.0215 0-.9903.375-1.7578 1.125-2.3028.7559-.5507 1.8164-.8261 3.1816-.8261h1.5821v-.7471c0-.5684-.17-1.0195-.5098-1.3535-.3398-.3399-.8408-.5098-1.5029-.5098-.5801 0-1.0664.1465-1.459.4395-.3926.2929-.5889.6474-.5889 1.0635h-1.6347c0-.4747.1669-.9317.5009-1.3711.3399-.4454.7969-.7969 1.3711-1.0547.5801-.2578 1.2158-.3867 1.9073-.3867 1.0957 0 1.9541.2753 2.5752.8261.621.5449.9433 1.2979.9667 2.2588v4.377c0 .873.1114 1.5674.334 2.083V59h-1.705zm-2.6983-1.2393c.5098 0 .9932-.1318 1.4502-.3955.457-.2636.7881-.6064.9932-1.0283v-1.9512h-1.2744c-1.9922 0-2.9883.5831-2.9883 1.7491 0 .5097.1699.9082.5097 1.1953.3399.2871.7764.4306 1.3096.4306zm11.2149-6.8115c-.2461-.041-.5127-.0615-.7999-.0615-1.0664 0-1.79.4541-2.1708 1.3623V59h-1.626v-9.5098h1.582l.0264 1.0987c.5332-.8496 1.289-1.2744 2.2676-1.2744.3164 0 .5566.041.7207.123v1.5117zm5.1416 6.8994c.58 0 1.0869-.1757 1.5205-.5273s.6738-.791.7207-1.3184h1.5381c-.0293.545-.2168 1.0635-.5625 1.5557-.3457.4922-.8086.8848-1.3887 1.1777-.5742.293-1.1836.4395-1.8281.4395-1.295 0-2.3262-.4307-3.0938-1.292-.7617-.8672-1.1426-2.0508-1.1426-3.5508v-.2725c0-.9257.1699-1.749.5098-2.4697.3398-.7207.8262-1.2803 1.459-1.6787.6387-.3984 1.3916-.5976 2.2588-.5976 1.0664 0 1.9511.3193 2.6543.958.7089.6386 1.0869 1.4677 1.1338 2.4873h-1.5381c-.0469-.6153-.2813-1.1192-.7032-1.5118-.416-.3984-.9316-.5976-1.5468-.5976-.8262 0-1.4678.2988-1.9248.8965-.4512.5918-.6768 1.4502-.6768 2.5752v.3076c0 1.0957.2256 1.9394.6768 2.5312.4511.5918 1.0957.8877 1.9336.8877zm7.2334-7.207c.7207-.8848 1.6582-1.3271 2.8125-1.3271 2.0097 0 3.0234 1.1337 3.041 3.4013V59h-1.626v-6.293c-.0059-.6855-.1641-1.1924-.4746-1.5205-.3047-.3281-.7822-.4922-1.4326-.4922-.5274 0-.9903.1407-1.3887.4219-.3984.2813-.709.6504-.9316 1.1074V59h-1.626V45.5h1.626v5.1416zm14.6953 3.3486V59h-1.6875V46.2031h4.7197c1.4004 0 2.4961.3574 3.2871 1.0723.7969.7148 1.1953 1.6611 1.1953 2.8389 0 1.2421-.3896 2.2002-1.1689 2.874-.7735.6679-1.8838 1.0019-3.3311 1.0019h-3.0146zm0-1.3798h3.0322c.9023 0 1.5937-.211 2.0742-.6329.4805-.4277.7207-1.0429.7207-1.8457 0-.7617-.2402-1.3711-.7207-1.8281-.4805-.457-1.1396-.6943-1.9775-.7119h-3.1289v5.0186zm14.0097-1.6612c-.2461-.041-.5127-.0615-.7998-.0615-1.0664 0-1.79.4541-2.1709 1.3623V59h-1.6259v-9.5098h1.582l.0264 1.0987c.5332-.8496 1.289-1.2744 2.2675-1.2744.3164 0 .5567.041.7207.123v1.5117zm.8965 3.208c0-.9316.1817-1.7695.5449-2.5136.3692-.7442.8789-1.3184 1.5293-1.7227.6563-.4043 1.4032-.6064 2.2412-.6064 1.295 0 2.341.4482 3.138 1.3447.802.8965 1.204 2.0888 1.204 3.5771v.1143c0 .9258-.179 1.7578-.536 2.4961-.352.7324-.859 1.3037-1.521 1.7138-.656.4102-1.412.6153-2.267.6153-1.289 0-2.3353-.4483-3.1381-1.3447-.7968-.8965-1.1953-2.0831-1.1953-3.5596v-.1143zm1.6348.1934c0 1.0547.2431 1.9014.7295 2.54.4922.6387 1.1481.958 1.9691.958.826 0 1.482-.3222 1.968-.9668.487-.6504.73-1.5586.73-2.7246 0-1.0429-.249-1.8867-.747-2.5312-.492-.6504-1.149-.9756-1.969-.9756-.803 0-1.4501.3193-1.9423.958-.4922.6387-.7383 1.5527-.7383 2.7422zm10.7406-4.8604v10.6084c0 1.8282-.829 2.7422-2.488 2.7422-.357 0-.688-.0527-.993-.1582v-1.3008c.188.0469.434.0703.738.0703.364 0 .639-.0996.827-.2988.193-.1933.29-.5332.29-1.0195V49.4902h1.626zm-1.793-2.5224c0-.2578.079-.4776.237-.6592.164-.1875.401-.2813.712-.2813.316 0 .557.0909.721.2725.164.1816.246.4043.246.668 0 .2636-.082.4834-.246.6592-.164.1757-.405.2636-.721.2636-.317 0-.554-.0879-.712-.2636-.158-.1758-.237-.3956-.237-.6592zm8.367 12.208c-1.289 0-2.338-.4219-3.147-1.2656-.808-.8497-1.213-1.9834-1.213-3.4014V54.21c0-.9434.179-1.7842.537-2.5225.363-.7441.867-1.3242 1.511-1.7402.651-.4219 1.354-.6328 2.11-.6328 1.236 0 2.197.4072 2.883 1.2216.685.8145 1.028 1.9805 1.028 3.4981v.6767h-6.443c.024.9375.296 1.6963.818 2.2764.527.5742 1.195.8613 2.004.8613.574 0 1.06-.1172 1.459-.3515.398-.2344.747-.545 1.046-.9317l.993.7735c-.797 1.2246-1.992 1.8369-3.586 1.8369zm-.202-8.5254c-.657 0-1.207.2402-1.653.7207-.445.4746-.72 1.1426-.826 2.0039h4.764v-.123c-.047-.8262-.27-1.4649-.668-1.9161-.399-.457-.938-.6855-1.617-.6855zm9.615 7.1982c.58 0 1.087-.1757 1.52-.5273.434-.3516.674-.791.721-1.3184h1.538c-.029.545-.217 1.0635-.562 1.5557-.346.4922-.809.8848-1.389 1.1777-.574.293-1.184.4395-1.828.4395-1.295 0-2.326-.4307-3.094-1.292-.762-.8672-1.142-2.0508-1.142-3.5508v-.2725c0-.9257.17-1.749.509-2.4697.34-.7207.827-1.2803 1.459-1.6787.639-.3984 1.392-.5976 2.259-.5976 1.067 0 1.951.3193 2.654.958.709.6386 1.087 1.4677 1.134 2.4873h-1.538c-.047-.6153-.281-1.1192-.703-1.5118-.416-.3984-.932-.5976-1.547-.5976-.826 0-1.468.2988-1.925.8965-.451.5918-.676 1.4502-.676 2.5752v.3076c0 1.0957.225 1.9394.676 2.5312.452.5918 1.096.8877 1.934.8877zm7.813-10.6611v2.3027h1.776v1.2569h-1.776v5.8974c0 .3809.079.668.238.8614.158.1875.427.2812.808.2812.188 0 .446-.0351.774-.1055V59c-.428.1172-.844.1758-1.248.1758-.727 0-1.275-.2197-1.644-.6592s-.554-1.0635-.554-1.8721v-5.8974h-1.731v-1.2569h1.731v-2.3027h1.626zm9.22 9.29c0-.4394-.167-.7793-.501-1.0195-.328-.2461-.905-.457-1.731-.6328-.821-.1758-1.474-.3867-1.96-.6328-.481-.2461-.838-.5391-1.073-.8789-.228-.3399-.342-.7442-.342-1.2129 0-.7793.328-1.4385.984-1.9776.662-.539 1.506-.8085 2.531-.8085 1.078 0 1.951.2783 2.619.8349.674.5567 1.011 1.2686 1.011 2.1358h-1.635c0-.4454-.19-.8291-.571-1.1514-.375-.3223-.849-.4834-1.424-.4834-.591 0-1.054.1289-1.388.3867-.334.2578-.501.5947-.501 1.0108 0 .3925.155.6884.466.8876.31.1993.87.3897 1.678.5713.815.1817 1.474.3985 1.978.6504.504.252.876.5567 1.116.9141.246.3516.369.7822.369 1.292 0 .8496-.34 1.5322-1.019 2.0478-.68.5098-1.562.7647-2.646.7647-.762 0-1.435-.1348-2.021-.4043-.586-.2695-1.046-.6445-1.38-1.125-.328-.4863-.492-1.0108-.492-1.5733h1.625c.03.545.247.9786.651 1.3008.41.3164.949.4746 1.617.4746.615 0 1.107-.123 1.477-.3691.375-.252.562-.5859.562-1.002z" fill="#000"/><path d="M80.8965 33H64.127v-2.3379l8.8593-9.8437c1.3125-1.4883 2.2149-2.6954 2.7071-3.6211.5039-.9375.7558-1.9043.7558-2.9004 0-1.336-.4043-2.4317-1.2129-3.2871-.8086-.8555-1.8867-1.28324-3.2343-1.28324-1.6172 0-2.877.46294-3.7793 1.38864-.8907.9141-1.336 2.1914-1.336 3.8321h-3.2519c0-2.3555.7558-4.2598 2.2675-5.71292 1.5235-1.45313 3.5567-2.17969 6.0997-2.17969 2.3789 0 4.2597.62695 5.6425 1.88086 1.3828 1.24215 2.0743 2.90035 2.0743 4.97465 0 2.5195-1.6055 5.5195-4.8165 9l-6.8554 7.4355h12.8496V33z" fill="red"/></svg>