<svg width="100" height="63" viewBox="0 0 100 63" fill="none" xmlns="http://www.w3.org/2000/svg"><path d="M6.17871 53.8232H3.17285V59H1.47656V46.2031h4.23633c1.44141 0 2.54883.3281 3.32227.9844.77929.6563 1.16894 1.6113 1.16894 2.8652 0 .7969-.2168 1.4912-.65039 2.083-.42773.5918-1.02539 1.0342-1.79297 1.3272l3.00586 5.4316V59H8.95605l-2.77734-5.1768zm-3.00586-1.3798h2.59277c.8379 0 1.50293-.2168 1.99512-.6504.49805-.4336.74707-1.0137.74707-1.7403 0-.791-.2373-1.3974-.71191-1.8193-.46875-.4219-1.14844-.6357-2.03906-.6416H3.17285v4.8516zm13.09575 6.7324c-1.2891 0-2.3379-.4219-3.1465-1.2656-.8086-.8497-1.2129-1.9834-1.2129-3.4014V54.21c0-.9434.1787-1.7842.5361-2.5225.3633-.7441.8672-1.3242 1.5117-1.7402.6504-.4219 1.3535-.6328 2.1094-.6328 1.2363 0 2.1973.4072 2.8828 1.2216.6856.8145 1.0283 1.9805 1.0283 3.4981v.6767h-6.4423c.0234.9375.2959 1.6963.8173 2.2764.5274.5742 1.1954.8613 2.0039.8613.5743 0 1.0606-.1172 1.459-.3515.3985-.2344.7471-.545 1.0459-.9317l.9932.7735c-.7969 1.2246-1.9922 1.8369-3.5859 1.8369zm-.2022-8.5254c-.6562 0-1.207.2402-1.6523.7207-.4453.4746-.7207 1.1426-.8262 2.0039h4.7637v-.123c-.0469-.8262-.2696-1.4649-.668-1.9161-.3984-.457-.9375-.6855-1.6172-.6855zm11.3379 5.8271c0-.4394-.167-.7793-.501-1.0195-.3281-.2461-.9053-.457-1.7314-.6328-.8203-.1758-1.4737-.3867-1.96-.6328-.4805-.2461-.8379-.5391-1.0723-.8789-.2285-.3399-.3427-.7442-.3427-1.2129 0-.7793.3281-1.4385.9843-1.9776.6622-.539 1.5059-.8085 2.5313-.8085 1.0781 0 1.9512.2783 2.6191.8349.6739.5567 1.0108 1.2686 1.0108 2.1358h-1.6348c0-.4454-.1904-.8291-.5713-1.1514-.375-.3223-.8496-.4834-1.4238-.4834-.5918 0-1.0547.1289-1.3887.3867-.334.2578-.5009.5947-.5009 1.0108 0 .3925.1552.6884.4658.8876.3105.1993.8701.3897 1.6787.5713.8144.1817 1.4736.3985 1.9775.6504.5039.252.876.5567 1.1162.9141.2461.3516.3692.7822.3692 1.292 0 .8496-.3399 1.5322-1.0196 2.0478-.6796.5098-1.5615.7647-2.6455.7647-.7617 0-1.4355-.1348-2.0214-.4043-.586-.2695-1.0459-.6445-1.3799-1.125-.3282-.4863-.4922-1.0108-.4922-1.5733h1.626c.0293.545.2461.9786.6503 1.3008.4102.3164.9493.4746 1.6172.4746.6153 0 1.1075-.123 1.4766-.3691.375-.252.5625-.5859.5625-1.002zm7.6904 2.6983c-1.289 0-2.3379-.4219-3.1465-1.2656-.8086-.8497-1.2128-1.9834-1.2128-3.4014V54.21c0-.9434.1787-1.7842.5361-2.5225.3633-.7441.8672-1.3242 1.5117-1.7402.6504-.4219 1.3535-.6328 2.1094-.6328 1.2363 0 2.1972.4072 2.8828 1.2216.6855.8145 1.0283 1.9805 1.0283 3.4981v.6767h-6.4424c.0235.9375.2959 1.6963.8174 2.2764.5274.5742 1.1953.8613 2.0039.8613.5742 0 1.0606-.1172 1.459-.3515.3984-.2344.7471-.545 1.0459-.9317l.9932.7735c-.7969 1.2246-1.9922 1.8369-3.586 1.8369zm-.2021-8.5254c-.6563 0-1.2071.2402-1.6524.7207-.4453.4746-.7207 1.1426-.8261 2.0039h4.7636v-.123c-.0468-.8262-.2695-1.4649-.6679-1.9161-.3985-.457-.9375-.6855-1.6172-.6855zM46.5645 59c-.0938-.1875-.17-.5215-.2286-1.002-.7558.7852-1.6582 1.1778-2.707 1.1778-.9375 0-1.708-.2637-2.3115-.791-.5977-.5332-.8965-1.2071-.8965-2.0215 0-.9903.375-1.7578 1.125-2.3028.7559-.5507 1.8164-.8261 3.1816-.8261h1.5821v-.7471c0-.5684-.17-1.0195-.5098-1.3535-.3398-.3399-.8408-.5098-1.5029-.5098-.5801 0-1.0664.1465-1.459.4395-.3926.2929-.5889.6474-.5889 1.0635h-1.6347c0-.4747.1669-.9317.5009-1.3711.3399-.4454.7969-.7969 1.3711-1.0547.5801-.2578 1.2158-.3867 1.9073-.3867 1.0957 0 1.9541.2753 2.5752.8261.621.5449.9433 1.2979.9667 2.2588v4.377c0 .873.1114 1.5674.334 2.083V59h-1.705zm-2.6983-1.2393c.5098 0 .9932-.1318 1.4502-.3955.457-.2636.7881-.6064.9932-1.0283v-1.9512h-1.2744c-1.9922 0-2.9883.5831-2.9883 1.7491 0 .5097.1699.9082.5097 1.1953.3399.2871.7764.4306 1.3096.4306zm11.2149-6.8115c-.2461-.041-.5127-.0615-.7999-.0615-1.0664 0-1.79.4541-2.1708 1.3623V59h-1.626v-9.5098h1.582l.0264 1.0987c.5332-.8496 1.289-1.2744 2.2676-1.2744.3164 0 .5566.041.7207.123v1.5117zm5.1416 6.8994c.58 0 1.0869-.1757 1.5205-.5273s.6738-.791.7207-1.3184h1.5381c-.0293.545-.2168 1.0635-.5625 1.5557-.3457.4922-.8086.8848-1.3887 1.1777-.5742.293-1.1836.4395-1.8281.4395-1.295 0-2.3262-.4307-3.0938-1.292-.7617-.8672-1.1426-2.0508-1.1426-3.5508v-.2725c0-.9257.1699-1.749.5098-2.4697.3398-.7207.8262-1.2803 1.459-1.6787.6387-.3984 1.3916-.5976 2.2588-.5976 1.0664 0 1.9511.3193 2.6543.958.7089.6386 1.0869 1.4677 1.1338 2.4873h-1.5381c-.0469-.6153-.2813-1.1192-.7032-1.5118-.416-.3984-.9316-.5976-1.5468-.5976-.8262 0-1.4678.2988-1.9248.8965-.4512.5918-.6768 1.4502-.6768 2.5752v.3076c0 1.0957.2256 1.9394.6768 2.5312.4511.5918 1.0957.8877 1.9336.8877zm7.2334-7.207c.7207-.8848 1.6582-1.3271 2.8125-1.3271 2.0097 0 3.0234 1.1337 3.041 3.4013V59h-1.626v-6.293c-.0059-.6855-.1641-1.1924-.4746-1.5205-.3047-.3281-.7822-.4922-1.4326-.4922-.5274 0-.9903.1407-1.3887.4219-.3984.2813-.709.6504-.9316 1.1074V59h-1.626V45.5h1.626v5.1416zm12.2343 8.5342c-1.289 0-2.3379-.4219-3.1465-1.2656-.8085-.8497-1.2128-1.9834-1.2128-3.4014V54.21c0-.9434.1787-1.7842.5361-2.5225.3633-.7441.8672-1.3242 1.5117-1.7402.6504-.4219 1.3535-.6328 2.1094-.6328 1.2363 0 2.1972.4072 2.8828 1.2216.6855.8145 1.0283 1.9805 1.0283 3.4981v.6767H76.957c.0235.9375.2959 1.6963.8174 2.2764.5274.5742 1.1953.8613 2.0039.8613.5742 0 1.0606-.1172 1.459-.3515.3984-.2344.7471-.545 1.0459-.9317l.9932.7735c-.7969 1.2246-1.9922 1.8369-3.586 1.8369zm-.2021-8.5254c-.6563 0-1.2071.2402-1.6524.7207-.4453.4746-.7207 1.1426-.8261 2.0039h4.7636v-.123c-.0468-.8262-.2695-1.4649-.6679-1.9161-.3985-.457-.9375-.6855-1.6172-.6855zm10.3974.2988c-.2461-.041-.5127-.0615-.7998-.0615-1.0664 0-1.79.4541-2.1709 1.3623V59h-1.6259v-9.5098h1.582l.0264 1.0987c.5332-.8496 1.289-1.2744 2.2675-1.2744.3164 0 .5567.041.7207.123v1.5117zm7.0401 5.5283c0-.4394-.167-.7793-.501-1.0195-.3281-.2461-.9053-.457-1.7314-.6328-.8204-.1758-1.4737-.3867-1.96-.6328-.4805-.2461-.8379-.5391-1.0723-.8789-.2285-.3399-.3427-.7442-.3427-1.2129 0-.7793.3281-1.4385.9843-1.9776.6621-.539 1.5059-.8085 2.5313-.8085 1.0781 0 1.9512.2783 2.6191.8349.6739.5567 1.0108 1.2686 1.0108 2.1358h-1.6348c0-.4454-.1904-.8291-.5713-1.1514-.375-.3223-.8496-.4834-1.4238-.4834-.5918 0-1.0547.1289-1.3887.3867-.334.2578-.501.5947-.501 1.0108 0 .3925.1553.6884.4659.8876.3105.1993.8701.3897 1.6787.5713.8144.1817 1.4736.3985 1.9775.6504.5039.252.876.5567 1.1162.9141.2461.3516.3692.7822.3692 1.292 0 .8496-.3399 1.5322-1.0196 2.0478-.6797.5098-1.5615.7647-2.6455.7647-.7617 0-1.4355-.1348-2.0215-.4043-.5859-.2695-1.0459-.6445-1.3798-1.125-.3282-.4863-.4922-1.0108-.4922-1.5733h1.6259c.0293.545.2461.9786.6504 1.3008.4102.3164.9493.4746 1.6172.4746.6153 0 1.1074-.123 1.4766-.3691.375-.252.5625-.5859.5625-1.002z" fill="#000"/><path d="M54.6504 9.23438L44.0508 33h-3.4102l10.5645-22.9219H37.3535V7.40625h17.2969v1.82813z" fill="red"/></svg>