<svg width="1024" height="56" viewBox="0 0 1024 56" fill="none" xmlns="http://www.w3.org/2000/svg"><path d="M21.3047 35.2109c0-1.5-.5313-2.6562-1.5938-3.4687-1.0468-.8125-2.9453-1.6328-5.6953-2.461-2.75-.8281-4.93748-1.75-6.56248-2.7656-3.10937-1.9531-4.66406-4.5-4.66406-7.6406 0-2.75 1.11719-5.0156 3.35156-6.7969 2.25-1.7812 5.16408-2.67185 8.74218-2.67185 2.375 0 4.4922.4375 6.3516 1.31255 1.8594.8749 3.3203 2.125 4.3828 3.75 1.0625 1.6093 1.5937 3.3984 1.5937 5.3671h-5.9062c0-1.7812-.5625-3.1718-1.6875-4.1718-1.1094-1.0157-2.7031-1.5235-4.7813-1.5235-1.9375 0-3.4453.4141-4.5234 1.2422-1.0625.8281-1.59375 1.9844-1.59375 3.4688 0 1.25.57813 2.2968 1.73435 3.1406 1.1563.8281 3.0625 1.6406 5.7188 2.4375 2.6562.7812 4.789 1.6797 6.3984 2.6953 1.6094 1 2.7891 2.1562 3.5391 3.4688.75 1.2968 1.125 2.8203 1.125 4.5703 0 2.8437-1.0938 5.1093-3.2813 6.7968-2.1719 1.6719-5.125 2.5079-8.8593 2.5079-2.4688 0-4.7422-.4532-6.82036-1.3594-2.0625-.9219-3.67188-2.1875-4.82813-3.7969-1.14062-1.6094-1.71093-3.4844-1.71093-5.625h5.92968c0 1.9375.64063 3.4375 1.92188 4.5 1.28126 1.0625 3.11716 1.5937 5.50786 1.5937 2.0624 0 3.6093-.414 4.6406-1.2421 1.0468-.8438 1.5703-1.9532 1.5703-3.3282zm21.75 9.2579c-3.6094 0-6.5391-1.1329-8.7891-3.3985-2.2344-2.2812-3.3515-5.3125-3.3515-9.0937v-.7032c0-2.5312.4843-4.789 1.4531-6.7734.9844-2 2.3594-3.5547 4.125-4.6641 1.7656-1.1093 3.7344-1.664 5.9062-1.664 3.4532 0 6.1172 1.1015 7.9922 3.3047 1.8906 2.2031 2.836 5.3203 2.836 9.3515v2.2969H36.6562c.1719 2.0938.8672 3.75 2.086 4.9688 1.2344 1.2187 2.7812 1.8281 4.6406 1.8281 2.6094 0 4.7344-1.0547 6.375-3.1641l3.0703 2.9297c-1.0156 1.5156-2.375 2.6953-4.0781 3.5391-1.6875.8281-3.5859 1.2422-5.6953 1.2422zm-.6797-21.7266c-1.5625 0-2.8281.5469-3.7969 1.6406C37.625 25.4766 37.0156 27 36.75 28.9531h10.8516v-.4219c-.125-1.9062-.6328-3.3437-1.5235-4.3124-.8906-.9844-2.125-1.4766-3.7031-1.4766zM72.8203 44c-.25-.4844-.4687-1.2734-.6562-2.3672-1.8125 1.8906-4.0313 2.836-6.6563 2.836-2.5469 0-4.625-.7266-6.2344-2.1797-1.6093-1.4532-2.414-3.25-2.414-5.3907 0-2.7031 1-4.7734 3-6.2109 2.0156-1.4531 4.8906-2.1797 8.625-2.1797h3.4922v-1.664c0-1.3126-.3672-2.3594-1.1016-3.1407-.7344-.7969-1.8516-1.1953-3.3516-1.1953-1.2968 0-2.3593.3281-3.1875.9844-.8281.6406-1.2421 1.4609-1.2421 2.4609h-5.6954c0-1.3906.461-2.6875 1.3828-3.8906.9219-1.2187 2.1719-2.1719 3.75-2.8594 1.5938-.6875 3.3672-1.0312 5.3204-1.0312 2.9687 0 5.3359.75 7.1015 2.25 1.7657 1.4843 2.6719 3.5781 2.7188 6.2812v11.4375c0 2.2813.3203 4.1016.9609 5.461V44h-5.8125zm-6.2578-4.1016c1.125 0 2.1797-.2734 3.1641-.8203 1-.5469 1.75-1.2812 2.25-2.2031v-4.7812h-3.0704c-2.1093 0-3.6953.3671-4.7578 1.1015-1.0625.7344-1.5937 1.7735-1.5937 3.1172 0 1.0937.3594 1.9687 1.0781 2.625.7344.6406 1.711.9609 2.9297.9609zm30.3516-16.0546c-.75-.125-1.5235-.1876-2.3203-.1876-2.6094 0-4.3672 1-5.2735 3V44H83.625V18.6406h5.4375l.1406 2.836c1.375-2.2032 3.2813-3.3047 5.7188-3.3047.8125 0 1.4843.1093 2.0156.3281l-.0234 5.3438zm13.5469 16.0781c1.422 0 2.601-.4141 3.539-1.2422.938-.8281 1.438-1.8516 1.5-3.0703h5.367c-.062 1.5781-.555 3.0547-1.476 4.4297-.922 1.3593-2.172 2.4375-3.75 3.2343-1.579.7969-3.282 1.1954-5.11 1.1954-3.547 0-6.359-1.1485-8.437-3.4454-2.078-2.2968-3.1174-5.4687-3.1174-9.5156v-.5859c0-3.8594 1.0314-6.9453 3.0934-9.2578 2.063-2.3282 4.875-3.4922 8.438-3.4922 3.015 0 5.469.8828 7.359 2.6484 1.906 1.75 2.906 4.0547 3 6.9141H115.5c-.062-1.4532-.562-2.6485-1.5-3.586-.922-.9375-2.102-1.4062-3.539-1.4062-1.844 0-3.266.6719-4.266 2.0156-1 1.3281-1.507 3.3516-1.523 6.0703v.9141c0 2.75.492 4.8047 1.476 6.164 1 1.3438 2.438 2.0157 4.313 2.0157zm20.32-18.5157c1.86-2.1562 4.211-3.2343 7.055-3.2343 5.406 0 8.148 3.0859 8.226 9.2578V44h-5.695V27.6406c0-1.75-.383-2.9844-1.148-3.7031-.75-.7344-1.86-1.1016-3.328-1.1016-2.282 0-3.985 1.0157-5.11 3.0469V44h-5.695V8h5.695v13.4062zM164.344 44V9.875h11.695c3.859 0 6.797.7734 8.813 2.3203 2.015 1.5469 3.023 3.8516 3.023 6.9141 0 1.5625-.422 2.9687-1.266 4.2187-.843 1.25-2.078 2.2188-3.703 2.9063 1.844.5 3.266 1.4453 4.266 2.8359 1.016 1.375 1.523 3.0313 1.523 4.9688 0 3.2031-1.031 5.664-3.093 7.3828C183.555 43.1406 180.617 44 176.789 44h-12.445zm5.929-15.3984v10.664h6.586c1.86 0 3.313-.4609 4.36-1.3828 1.047-.9219 1.57-2.2031 1.57-3.8437 0-3.5469-1.812-5.3594-5.437-5.4375h-7.079zm0-4.3594h5.813c1.844 0 3.281-.4141 4.312-1.2422 1.047-.8438 1.571-2.0312 1.571-3.5625 0-1.6875-.485-2.9063-1.453-3.6563-.954-.75-2.446-1.125-4.477-1.125h-5.766v9.586zm32.672 11.6016l5.157-17.2032h6.07l-10.078 29.2032c-1.547 4.2656-4.172 6.3984-7.875 6.3984-.828 0-1.742-.1406-2.742-.4219v-4.4062l1.078.0703c1.437 0 2.515-.2656 3.234-.7969.734-.5156 1.313-1.3906 1.734-2.625l.821-2.1797-8.906-25.2422h6.14l5.367 17.2032z" fill="#000"/></svg>