<svg width="478" height="56" viewBox="0 0 478 56" fill="none" xmlns="http://www.w3.org/2000/svg"><path d="M3.3125 44V9.875h10.5c3 0 5.6797.6797 8.0391 2.0391 2.375 1.3437 4.2265 3.2656 5.5546 5.7656 1.3282 2.4844 1.9922 5.3125 1.9922 8.4844v1.5703c0 3.1718-.6562 5.9922-1.9687 8.4609-1.2969 2.4688-3.1328 4.3828-5.5078 5.7422-2.375 1.3594-5.0547 2.0469-8.0391 2.0625H3.3125zm7.0313-28.4297v22.7813h3.3984c2.75 0 4.8516-.8985 6.3047-2.6954 1.4531-1.7968 2.1953-4.3671 2.2265-7.7109v-1.8047c0-3.4687-.7187-6.0937-2.1562-7.875-1.4375-1.7968-3.5391-2.6953-6.3047-2.6953h-3.4687zm38.9296 25.8516c-1.6718 2.0312-3.9843 3.0469-6.9375 3.0469-2.7187 0-4.7968-.7813-6.2343-2.3438-1.4219-1.5625-2.1485-3.8516-2.1797-6.8672V18.6406h6.7734v16.3828c0 2.6407 1.2031 3.961 3.6094 3.961 2.2969 0 3.875-.7969 4.7344-2.3906V18.6406h6.7968V44h-6.375l-.1875-2.5781zm22.2188-2.4141c1.25 0 2.2656-.3437 3.0469-1.0312.7812-.6875 1.1875-1.6016 1.2187-2.7422h6.3516c-.0156 1.7187-.4844 3.2968-1.4063 4.7344-.9219 1.4218-2.1875 2.5312-3.7969 3.3281-1.5937.7812-3.3593 1.1719-5.2968 1.1719-3.625 0-6.4844-1.1485-8.5782-3.4454-2.0937-2.3125-3.1406-5.5-3.1406-9.5625v-.4453c0-3.9062 1.0391-7.0234 3.1172-9.3515 2.0781-2.3282 4.9297-3.4922 8.5547-3.4922 3.1719 0 5.7109.9062 7.6172 2.7187 1.9219 1.7969 2.8984 4.1953 2.9297 7.1953h-6.3516c-.0312-1.3125-.4375-2.375-1.2187-3.1875-.7813-.8281-1.8125-1.2422-3.0938-1.2422-1.5781 0-2.7734.5782-3.5859 1.7344-.7969 1.1406-1.1953 3-1.1953 5.5782v.7031c0 2.6093.3984 4.4843 1.1953 5.625.7968 1.1406 2.0078 1.7109 3.6328 1.7109zm21.0937-17.6016c1.7969-2.1562 4.0547-3.2343 6.7735-3.2343 5.4996 0 8.2886 3.1953 8.3676 9.5859V44h-6.774V27.9453c0-1.4531-.312-2.5234-.937-3.2109-.6254-.7032-1.6644-1.0547-3.1176-1.0547-1.9843 0-3.4218.7656-4.3125 2.2969V44h-6.7734V8h6.7734v13.4062zm31.9221 23.0626c-3.719 0-6.75-1.1407-9.094-3.4219-2.328-2.2813-3.492-5.3203-3.492-9.1172v-.6563c0-2.5468.492-4.8203 1.476-6.8203.985-2.0156 2.375-3.5625 4.172-4.6406 1.813-1.0937 3.875-1.6406 6.188-1.6406 3.469 0 6.195 1.0937 8.18 3.2812 2 2.1875 3 5.2891 3 9.3047v2.7656h-16.149c.219 1.6563.875 2.9844 1.969 3.9844 1.109 1 2.508 1.5 4.195 1.5 2.609 0 4.649-.9453 6.117-2.8359l3.328 3.7265c-1.015 1.4375-2.39 2.5625-4.125 3.375-1.734.7969-3.656 1.1954-5.765 1.1954zm-.774-20.8126c-1.343 0-2.437.4532-3.281 1.3594-.828.9063-1.359 2.2032-1.594 3.8906h9.422v-.539c-.031-1.5-.437-2.6563-1.219-3.4688-.781-.8281-1.89-1.2422-3.328-1.2422zm21.305-5.0156l.211 2.9297c1.812-2.2656 4.242-3.3984 7.289-3.3984 2.688 0 4.688.789 6 2.3672 1.313 1.5781 1.984 3.9375 2.016 7.0781V44h-6.774V27.7812c0-1.4374-.312-2.4765-.937-3.1171-.625-.6563-1.664-.9844-3.117-.9844-1.907 0-3.336.8125-4.289 2.4375V44h-6.774V18.6406h6.375zm26.906 0l.211 2.9297c1.813-2.2656 4.242-3.3984 7.289-3.3984 2.688 0 4.688.789 6 2.3672 1.313 1.5781 1.985 3.9375 2.016 7.0781V44h-6.773V27.7812c0-1.4374-.313-2.4765-.938-3.1171-.625-.6563-1.664-.9844-3.117-.9844-1.906 0-3.336.8125-4.289 2.4375V44h-6.774V18.6406h6.375zm32.344 25.8282c-3.719 0-6.75-1.1407-9.094-3.4219-2.328-2.2813-3.492-5.3203-3.492-9.1172v-.6563c0-2.5468.492-4.8203 1.477-6.8203.984-2.0156 2.375-3.5625 4.172-4.6406 1.812-1.0937 3.875-1.6406 6.187-1.6406 3.469 0 6.195 1.0937 8.18 3.2812 2 2.1875 3 5.2891 3 9.3047v2.7656H198.57c.219 1.6563.875 2.9844 1.969 3.9844 1.109 1 2.508 1.5 4.195 1.5 2.61 0 4.649-.9453 6.118-2.8359l3.328 3.7265c-1.016 1.4375-2.391 2.5625-4.125 3.375-1.735.7969-3.657 1.1954-5.766 1.1954zm-.773-20.8126c-1.344 0-2.438.4532-3.282 1.3594-.828.9063-1.359 2.2032-1.593 3.8906h9.421v-.539c-.031-1.5-.437-2.6563-1.218-3.4688-.782-.8281-1.891-1.2422-3.328-1.2422zm46.734 13.3126h-12.328L235.578 44h-7.476l12.703-34.125h6.515L260.094 44h-7.477l-2.367-7.0312zm-10.43-5.6954h8.532L244.062 18.5l-4.242 12.7734zm33.563 7.7344c1.25 0 2.265-.3437 3.047-1.0312.781-.6875 1.187-1.6016 1.218-2.7422H284c-.016 1.7187-.484 3.2968-1.406 4.7344-.922 1.4218-2.188 2.5312-3.797 3.3281-1.594.7812-3.359 1.1719-5.297 1.1719-3.625 0-6.484-1.1485-8.578-3.4454-2.094-2.3125-3.141-5.5-3.141-9.5625v-.4453c0-3.9062 1.039-7.0234 3.117-9.3515 2.079-2.3282 4.93-3.4922 8.555-3.4922 3.172 0 5.711.9062 7.617 2.7187 1.922 1.7969 2.899 4.1953 2.93 7.1953h-6.352c-.031-1.3125-.437-2.375-1.218-3.1875-.782-.8281-1.813-1.2422-3.094-1.2422-1.578 0-2.774.5782-3.586 1.7344-.797 1.1406-1.195 3-1.195 5.5782v.7031c0 2.6093.398 4.4843 1.195 5.625.797 1.1406 2.008 1.7109 3.633 1.7109zm25.031 0c1.25 0 2.266-.3437 3.047-1.0312.781-.6875 1.187-1.6016 1.219-2.7422h6.351c-.015 1.7187-.484 3.2968-1.406 4.7344-.922 1.4218-2.187 2.5312-3.797 3.3281-1.594.7812-3.359 1.1719-5.297 1.1719-3.625 0-6.484-1.1485-8.578-3.4454-2.094-2.3125-3.141-5.5-3.141-9.5625v-.4453c0-3.9062 1.04-7.0234 3.118-9.3515 2.078-2.3282 4.929-3.4922 8.554-3.4922 3.172 0 5.711.9062 7.618 2.7187 1.921 1.7969 2.898 4.1953 2.929 7.1953h-6.351c-.032-1.3125-.438-2.375-1.219-3.1875-.781-.8281-1.813-1.2422-3.094-1.2422-1.578 0-2.773.5782-3.586 1.7344-.797 1.1406-1.195 3-1.195 5.5782v.7031c0 2.6093.398 4.4843 1.195 5.625.797 1.1406 2.008 1.7109 3.633 1.7109zm26.156 5.461c-3.718 0-6.75-1.1407-9.093-3.4219-2.329-2.2813-3.493-5.3203-3.493-9.1172v-.6563c0-2.5468.493-4.8203 1.477-6.8203.984-2.0156 2.375-3.5625 4.172-4.6406 1.812-1.0937 3.875-1.6406 6.187-1.6406 3.469 0 6.196 1.0937 8.18 3.2812 2 2.1875 3 5.2891 3 9.3047v2.7656h-16.148c.218 1.6563.875 2.9844 1.968 3.9844 1.11 1 2.508 1.5 4.196 1.5 2.609 0 4.648-.9453 6.117-2.8359l3.328 3.7265c-1.016 1.4375-2.391 2.5625-4.125 3.375-1.734.7969-3.656 1.1954-5.766 1.1954zm-.773-20.8126c-1.344 0-2.438.4532-3.281 1.3594-.828.9063-1.36 2.2032-1.594 3.8906h9.422v-.539c-.032-1.5-.438-2.6563-1.219-3.4688-.781-.8281-1.891-1.2422-3.328-1.2422zM346.016 44h-6.797V8h6.797v36zm17.273.4688c-3.719 0-6.75-1.1407-9.094-3.4219-2.328-2.2813-3.492-5.3203-3.492-9.1172v-.6563c0-2.5468.492-4.8203 1.477-6.8203.984-2.0156 2.375-3.5625 4.172-4.6406 1.812-1.0937 3.875-1.6406 6.187-1.6406 3.469 0 6.195 1.0937 8.18 3.2812 2 2.1875 3 5.2891 3 9.3047v2.7656H357.57c.219 1.6563.875 2.9844 1.969 3.9844 1.109 1 2.508 1.5 4.195 1.5 2.61 0 4.649-.9453 6.118-2.8359l3.328 3.7265c-1.016 1.4375-2.391 2.5625-4.125 3.375-1.735.7969-3.657 1.1954-5.766 1.1954zm-.773-20.8126c-1.344 0-2.438.4532-3.282 1.3594-.828.9063-1.359 2.2032-1.593 3.8906h9.421v-.539c-.031-1.5-.437-2.6563-1.218-3.4688-.782-.8281-1.891-1.2422-3.328-1.2422zm29.32 1.336c-.922-.125-1.734-.1875-2.438-.1875-2.562 0-4.242.8672-5.039 2.6015V44h-6.773V18.6406h6.398l.188 3.0235c1.359-2.3282 3.242-3.4922 5.648-3.4922.75 0 1.453.1015 2.11.3047l-.094 6.5156zM409.109 44c-.312-.6094-.539-1.3672-.679-2.2734-1.641 1.8281-3.774 2.7422-6.399 2.7422-2.484 0-4.547-.7188-6.187-2.1563-1.625-1.4375-2.438-3.25-2.438-5.4375 0-2.6875.992-4.75 2.977-6.1875 2-1.4375 4.883-2.1641 8.648-2.1797h3.117v-1.4531c0-1.1719-.304-2.1094-.914-2.8125-.593-.7031-1.539-1.0547-2.836-1.0547-1.14 0-2.039.2734-2.695.8203-.641.5469-.961 1.2969-.961 2.25h-6.773c0-1.4687.453-2.8281 1.359-4.0781.906-1.25 2.188-2.2266 3.844-2.9297 1.656-.7188 3.516-1.0781 5.578-1.0781 3.125 0 5.602.789 7.43 2.3672 1.843 1.5625 2.765 3.7656 2.765 6.6093v10.9922c.016 2.4063.352 4.2266 1.008 5.461V44h-6.844zm-5.601-4.7109c1 0 1.922-.2188 2.765-.6563.844-.4531 1.469-1.0547 1.875-1.8047v-4.3593h-2.531c-3.39 0-5.195 1.1718-5.414 3.5156l-.023.3984c0 .8438.297 1.5391.89 2.086.594.5468 1.407.8203 2.438.8203zm24.75-26.8829v6.2344h4.336v4.9688h-4.336v12.6562c0 .9375.18 1.6094.539 2.0156.359.4063 1.047.6094 2.062.6094.75 0 1.414-.0547 1.993-.164v5.1328c-1.329.4062-2.696.6094-4.102.6094-4.75 0-7.172-2.3985-7.266-7.1954v-13.664h-3.703v-4.9688h3.703v-6.2344h6.774zm6.351 18.6797c0-2.5156.485-4.7578 1.453-6.7265.969-1.9688 2.36-3.4922 4.172-4.5703 1.828-1.0782 3.946-1.6172 6.352-1.6172 3.422 0 6.211 1.0469 8.367 3.1406 2.172 2.0937 3.383 4.9375 3.633 8.5313l.047 1.7343c0 3.8907-1.086 7.0157-3.258 9.375-2.172 2.3438-5.086 3.5157-8.742 3.5157-3.656 0-6.578-1.1719-8.766-3.5157-2.172-2.3437-3.258-5.5312-3.258-9.5625v-.3047zm6.774.4922c0 2.4063.453 4.25 1.359 5.5313.906 1.2656 2.203 1.8984 3.891 1.8984 1.64 0 2.922-.625 3.844-1.875.921-1.2656 1.382-3.2812 1.382-6.0469 0-2.3593-.461-4.1875-1.382-5.4843-.922-1.2969-2.219-1.9454-3.891-1.9454-1.656 0-2.938.6485-3.844 1.9454-.906 1.2812-1.359 3.2734-1.359 5.9765zm35.672-6.5859c-.922-.125-1.735-.1875-2.438-.1875-2.562 0-4.242.8672-5.039 2.6015V44h-6.773V18.6406h6.398l.188 3.0235c1.359-2.3282 3.242-3.4922 5.648-3.4922.75 0 1.453.1015 2.109.3047l-.093 6.5156z" fill="#000"/></svg>