<svg width="201" height="53" viewBox="0 0 201 53" fill="none" xmlns="http://www.w3.org/2000/svg"><rect width="201" height="53" rx="5" fill="red"/><path d="M36.6211 31.3828c-.4746.5684-1.1455 1.0108-2.0127 1.3272-.8672.3105-1.8281.4658-2.8828.4658-1.1074 0-2.0801-.2403-2.918-.7207-.832-.4863-1.4765-1.1895-1.9336-2.1094-.4511-.9199-.6826-2.001-.6943-3.2432v-.8701c0-1.2773.2139-2.3818.6416-3.3135.4336-.9375 1.0547-1.6523 1.8633-2.1445.8144-.498 1.7666-.7471 2.8564-.7471 1.5176 0 2.7041.3633 3.5596 1.0899.8555.7207 1.3623 1.7724 1.5205 3.1553h-2.5664c-.1172-.7325-.3779-1.2686-.7822-1.6084-.3985-.3399-.9493-.5098-1.6524-.5098-.8965 0-1.5791.3369-2.0478 1.0107-.4688.6739-.7061 1.6758-.7119 3.0059v.8174c0 1.3418.2548 2.3555.7646 3.041.5098.6855 1.2568 1.0283 2.2412 1.0283.9902 0 1.6963-.2109 2.1182-.6328v-2.206H31.585v-1.9424h5.0361v5.1064zm1.582-3.2256c0-.9433.1817-1.7842.5449-2.5224.3633-.7383.8848-1.3096 1.5645-1.7139.6855-.4043 1.4795-.6064 2.3818-.6064 1.2832 0 2.3291.3925 3.1377 1.1777.8145.7851 1.2686 1.8516 1.3623 3.1992l.0176.6504c0 1.459-.4072 2.6309-1.2217 3.5156-.8144.8789-1.9072 1.3184-3.2783 1.3184-1.3711 0-2.4668-.4395-3.2871-1.3184-.8144-.8789-1.2217-2.0742-1.2217-3.5859v-.1143zm2.5401.1846c0 .9023.1699 1.5937.5097 2.0742.3399.4746.8262.7119 1.459.7119.6152 0 1.0957-.2343 1.4414-.7031.3457-.4746.5186-1.2305.5186-2.2676 0-.8847-.1729-1.5703-.5186-2.0566-.3457-.4863-.832-.7295-1.459-.7295-.6211 0-1.1015.2432-1.4414.7295-.3398.4805-.5097 1.2275-.5097 2.2412zm15.5566-7.1895v2.3379h1.626v1.8633h-1.626v4.7461c0 .3516.0674.6035.2022.7559.1347.1523.3925.2285.7734.2285.2812 0 .5303-.0205.7471-.0615v1.9248c-.4981.1523-1.0108.2285-1.5381.2285-1.7813 0-2.6895-.8994-2.7246-2.6983v-5.124h-1.3887v-1.8633h1.3887v-2.3379h2.54zm2.3818 7.0049c0-.9433.1817-1.7842.545-2.5224.3632-.7383.8847-1.3096 1.5644-1.7139.6856-.4043 1.4795-.6064 2.3819-.6064 1.2832 0 2.3291.3925 3.1376 1.1777.8145.7851 1.2686 1.8516 1.3624 3.1992l.0175.6504c0 1.459-.4072 2.6309-1.2216 3.5156-.8145.8789-1.9073 1.3184-3.2784 1.3184s-2.4668-.4395-3.2871-1.3184c-.8144-.8789-1.2217-2.0742-1.2217-3.5859v-.1143zm2.5401.1846c0 .9023.1699 1.5937.5097 2.0742.3399.4746.8262.7119 1.459.7119.6153 0 1.0957-.2343 1.4414-.7031.3457-.4746.5186-1.2305.5186-2.2676 0-.8847-.1729-1.5703-.5186-2.0566-.3457-.4863-.832-.7295-1.4589-.7295-.6211 0-1.1016.2432-1.4415.7295-.3398.4805-.5097 1.2275-.5097 2.2412zM73.9043 33V20.2031h3.9375c1.125 0 2.1299.2549 3.0146.7647.8907.5039 1.585 1.2246 2.0831 2.1621.498.9316.747 1.9922.747 3.1816v.5889c0 1.1894-.2461 2.2471-.7383 3.1728-.4863.9258-1.1748 1.6436-2.0654 2.1534-.8906.5097-1.8955.7675-3.0146.7734h-3.9639zm2.6367-10.6611v8.5429h1.2744c1.0313 0 1.8194-.3369 2.3643-1.0107.5449-.6738.8232-1.6377.8349-2.8916v-.6768c0-1.3007-.2695-2.2851-.8085-2.9531-.5391-.6738-1.3272-1.0107-2.3643-1.0107H76.541zM90.9551 33c-.1172-.2285-.2022-.5127-.2549-.8525-.6152.6855-1.415 1.0283-2.3994 1.0283-.9317 0-1.7051-.2696-2.3203-.8086-.6094-.5391-.9141-1.2188-.9141-2.0391 0-1.0078.3721-1.7812 1.1162-2.3203.75-.539 1.8311-.8115 3.2432-.8174h1.1689v-.5449c0-.4394-.1142-.791-.3427-1.0547-.2227-.2637-.5772-.3955-1.0635-.3955-.4278 0-.7647.1026-1.0108.3076-.2402.2051-.3603.4864-.3603.8438h-2.5401c0-.5508.17-1.0606.5098-1.5293.3399-.4688.8203-.835 1.4414-1.0986.6211-.2696 1.3184-.4043 2.0918-.4043 1.1719 0 2.1006.2959 2.7861.8876.6915.586 1.0372 1.4122 1.0372 2.4786v4.122c.0058.9024.1318 1.585.3779 2.0479V33h-2.5664zm-2.1006-1.7666c.375 0 .7207-.082 1.0371-.2461.3164-.1699.5508-.3955.7031-.6768v-1.6347h-.9492c-1.2715 0-1.9482.4394-2.0303 1.3183l-.0088.1495c0 .3164.1114.5771.334.7822.2227.2051.5274.3076.9141.3076zm9.2812-10.0811v2.3379h1.626v1.8633h-1.626v4.7461c0 .3516.0674.6035.2022.7559.1348.1523.3926.2285.7734.2285.2813 0 .5303-.0205.7471-.0615v1.9248c-.498.1523-1.0107.2285-1.5381.2285-1.7812 0-2.6894-.8994-2.7246-2.6983v-5.124H94.207v-1.8633h1.3887v-2.3379h2.54zM106.688 33c-.118-.2285-.203-.5127-.255-.8525-.616.6855-1.415 1.0283-2.4 1.0283-.931 0-1.705-.2696-2.32-.8086-.609-.5391-.914-1.2188-.914-2.0391 0-1.0078.372-1.7812 1.116-2.3203.75-.539 1.831-.8115 3.243-.8174h1.169v-.5449c0-.4394-.114-.791-.343-1.0547-.222-.2637-.577-.3955-1.063-.3955-.428 0-.765.1026-1.011.3076-.24.2051-.36.4864-.36.8438h-2.54c0-.5508.17-1.0606.51-1.5293.339-.4688.82-.835 1.441-1.0986.621-.2696 1.318-.4043 2.092-.4043 1.172 0 2.1.2959 2.786.8876.691.586 1.037 1.4122 1.037 2.4786v4.122c.006.9024.132 1.585.378 2.0479V33h-2.566zm-2.101-1.7666c.375 0 .721-.082 1.037-.2461.316-.1699.551-.3955.703-.6768v-1.6347h-.949c-1.272 0-1.948.4394-2.03 1.3183l-.009.1495c0 .3164.111.5771.334.7822.223.2051.527.3076.914.3076zm14.809-2.9004c0 1.5234-.325 2.7129-.975 3.5684-.65.8496-1.559 1.2744-2.725 1.2744-1.031 0-1.854-.3955-2.469-1.1865L113.112 33h-2.285V19.5h2.54v4.8428c.586-.6856 1.357-1.0283 2.312-1.0283 1.16 0 2.068.4277 2.724 1.2832.662.8496.993 2.0478.993 3.5947v.1406zm-2.54-.1846c0-.9609-.152-1.6611-.457-2.1005-.304-.4454-.758-.668-1.362-.668-.808 0-1.365.331-1.67.9931v3.753c.311.6679.873 1.0019 1.688 1.0019.82 0 1.359-.4043 1.617-1.2129.123-.3867.184-.9755.184-1.7666zM126.48 33c-.117-.2285-.202-.5127-.254-.8525-.616.6855-1.415 1.0283-2.4 1.0283-.931 0-1.705-.2696-2.32-.8086-.61-.5391-.914-1.2188-.914-2.0391 0-1.0078.372-1.7812 1.116-2.3203.75-.539 1.831-.8115 3.243-.8174h1.169v-.5449c0-.4394-.114-.791-.343-1.0547-.222-.2637-.577-.3955-1.063-.3955-.428 0-.765.1026-1.011.3076-.24.2051-.36.4864-.36.8438h-2.54c0-.5508.17-1.0606.509-1.5293.34-.4688.821-.835 1.442-1.0986.621-.2696 1.318-.4043 2.092-.4043 1.172 0 2.1.2959 2.786.8876.691.586 1.037 1.4122 1.037 2.4786v4.122c.006.9024.132 1.585.378 2.0479V33h-2.567zm-2.1-1.7666c.375 0 .721-.082 1.037-.2461.316-.1699.551-.3955.703-.6768v-1.6347h-.949c-1.272 0-1.948.4394-2.03 1.3183l-.009.1495c0 .3164.111.5771.334.7822.222.2051.527.3076.914.3076zm11.391-.8613c0-.3106-.156-.5537-.466-.7295-.305-.1817-.797-.3428-1.477-.4834-2.262-.4746-3.392-1.4356-3.392-2.8828 0-.8438.348-1.5469 1.045-2.1094.704-.5684 1.621-.8525 2.751-.8525 1.207 0 2.171.2841 2.892.8525.727.5684 1.09 1.3066 1.09 2.2148h-2.54c0-.3632-.117-.6621-.352-.8964-.234-.2403-.6-.3604-1.098-.3604-.428 0-.759.0967-.994.29-.234.1934-.351.4395-.351.7383 0 .2813.132.5098.395.6856.27.1699.721.3193 1.354.4482.633.1231 1.166.2637 1.6.4219 1.341.4922 2.012 1.3447 2.012 2.5576 0 .8672-.372 1.5703-1.116 2.1094-.744.5332-1.705.7998-2.883.7998-.797 0-1.506-.1406-2.127-.4219-.615-.2871-1.098-.6768-1.45-1.1689-.352-.4981-.527-1.0342-.527-1.6084h2.408c.023.4511.19.7968.501 1.0371.31.2402.726.3603 1.248.3603.486 0 .852-.0908 1.099-.2724.252-.1875.378-.4307.378-.7295zm8.49 2.8037c-1.395 0-2.532-.4278-3.41-1.2832-.873-.8555-1.31-1.9951-1.31-3.419v-.2461c0-.955.185-1.8076.554-2.5576.369-.7558.89-1.3359 1.564-1.7402.68-.4102 1.453-.6152 2.32-.6152 1.301 0 2.324.4101 3.068 1.2304.75.8203 1.125 1.9834 1.125 3.4893v1.0371h-6.056c.082.6211.328 1.1191.738 1.4941.417.375.941.5625 1.574.5625.978 0 1.743-.3545 2.294-1.0634l1.248 1.3974c-.381.5391-.897.961-1.547 1.2656-.651.2989-1.371.4483-2.162.4483zm-.29-7.8047c-.504 0-.914.1699-1.231.5098-.31.3398-.51.8261-.597 1.4589h3.533v-.2021c-.012-.5625-.164-.9961-.457-1.3008-.293-.3105-.709-.4658-1.248-.4658zM177 26.5l-14.25 8.2272V18.2728L177 26.5z" fill="#fff"/></svg>